<?xml version="1.0" encoding="utf-8"?>
<!-- Generator: Adobe Illustrator 23.0.5, SVG Export Plug-In . SVG Version: 6.00 Build 0)  -->
<svg version="1.1" id="Capa_1" xmlns="http://www.w3.org/2000/svg" xmlns:xlink="http://www.w3.org/1999/xlink" x="0px" y="0px"
	 viewBox="0 0 850.4 483" style="enable-background:new 0 0 850.4 483;" xml:space="preserve">
<style type="text/css">
	.st0{fill:#272725;}
	.st1{fill:#2D2D2C;}
	.st2{fill:#FFFFFF;}
	.st3{fill:#7CCF00;}
	.st4{fill:#211915;}
	.st5{fill:#DDE1E4;}
	.st6{fill:#5EA500;}
	.st7{fill:#00C950;}
	.st8{fill:none;stroke:#211915;stroke-width:1.6144;stroke-miterlimit:10;}
	.st9{fill:#497D00;}
	.st10{fill:#3C6300;}
	.st11{fill:#35530E;}
</style>
<path class="st0" d="M543.6,250.3c-0.6-4.1-1-8.3-1-12.4c0-1.4,0-2.7-0.5-4c-0.5-1.3-1.5-2.4-2.8-2.6c-1.8-0.3-3.5,1.4-3.9,3.1
	c-0.5,1.8-0.1,3.6,0.1,5.5c0.5,4.5,0.2,9-0.9,13.4c-2.5-0.8-4.3-3.1-6.2-4.9s-4.5-3.6-7.1-2.9c-3.4,0.9-4.7,5.4-8,6.8
	c0.1-3.4,0.2-6.8,0.1-10.2c0-1-0.1-2.1-0.7-2.9c-0.8-1.2-2.6-1.5-4-1c-4.6,1.8-3.9,8.5-3.6,12.5c0.4,4.9,1.8,9.7,4,14.1
	c0.9,1.7,2.1,3.5,4,3.7c1.8,0.3,3.5-1,4.5-2.5c1-1.5,1.5-3.3,2.3-4.9c0.8-1.6,2.1-3.2,3.9-3.5c1.7-0.3,3.4,0.5,4.6,1.7
	c1.3,1.1,2.3,2.6,3.5,3.7c1.7,1.6,3.8,2.7,6.1,2.8c2.3,0.1,4.6-0.9,5.9-2.9c1.6-2.6,0.9-5.9,0.3-8.8
	C544,252.6,543.7,251.5,543.6,250.3z"/>
<path class="st0" d="M446.9,260.9c-7.2-1.1-14.1-4-20.3-7.8c-6.2-3.8-11.9-8.4-17.6-13c-1.1-0.9-2.2-1.9-2.1-3.3
	c0.1-1.4,1.4-2.2,2.6-2.9c7.8-4.4,15.6-8.8,23.3-13.2c1.4-0.8,2.9-1.6,3.8-2.9c1-1.3,1.3-3.2,0.4-4.5c-0.9-1.3-2.7-1.7-4.3-1.3
	s-2.9,1.3-4.2,2.2c-5.8,4.1-12,7.6-18.4,10.7c-0.8,0.4-1.8,0.7-2.4,0.1c-0.3-0.2-0.4-0.6-0.5-0.9c-0.5-1.7-0.2-3.6,0.2-5.4
	c0.4-1.8,1-3.6,0.9-5.4c-0.1-1.8-0.9-3.7-2.6-4.5c-6.2-3-6.4,11.9-6.6,14.9c-0.2,2.8-0.4,6-2.7,7.7c-1.5,1.1-3.8,1.5-4.5,3.2
	c-0.4,1.1,0.1,2.3,0.8,3.2s1.7,1.5,2.6,2.3c3.3,2.9,4.6,7.5,5.1,11.9s0.3,8.8,1.2,13.1c0.3,1.6,1,3.3,2.4,4c1.7,0.9,3.9-0.1,4.9-1.7
	s1-3.7,0.7-5.6c-0.4-1.9-1.1-3.7-1.4-5.6c-0.4-1.9-0.3-4,0.7-5.6c5.8,2.9,10.8,7.2,16.4,10.4c5.6,3.2,12.3,5.4,18.5,3.7
	c0.9-0.2,1.7-0.6,2.3-1.2C446.9,262.7,447.3,261.7,446.9,260.9z"/>
<path class="st0" d="M479.5,264c-0.2-1.3-1.2-2.5-1.7-3.8c-0.9-2.1-0.7-4.5-0.7-6.8c0.2-6.9-1.1-13.9-3.8-20.3
	c-0.6-1.3-1.3-2.7-2.6-3.4c-1.6-0.8-3.6-0.2-4.9,0.9c-1.4,1.1-2.3,2.7-3.4,4.1c-1.1,1.4-2.5,2.7-4.2,3.1c-1.3,0.3-2.5,0-3.8,0
	c-4.1,0.1-3.7,4.1-4.1,7.1c-0.4,4.1-0.9,8.1-1.3,12.2c-0.2,1.7-0.4,3.5,0.2,5.2s2,3.1,3.8,3c1.3-0.1,2.4-1,3.1-2.1
	c0.7-1.1,1.1-2.4,1.5-3.6c2-6.4,5.4-12.4,9.7-17.5c1.4,6.1,2.8,12.1,4.2,18.2c0.5,2.1,1.1,4.3,2.7,5.7c1.7,1.4,4.8,1,5.3-1
	C479.5,264.7,479.5,264.4,479.5,264z"/>
<path class="st0" d="M503.2,256.6c0.5-1.9,0.8-3.8,0.7-5.7c-0.2-3.6-1.6-7.2-4.4-9.5c-2.7-2.3-6.6-3-10.1-2.1
	c-11.3,3-11.3,17.5-5.1,25.2c1.1,1.3,2.4,2.5,4,3.1c2.9,1.1,6.2-0.1,8.6-1.9C499.9,263.5,502.1,260.2,503.2,256.6z M495.1,256.2
	c-0.5,1.2-1.2,2.4-2.4,3.1c-1.1,0.7-2.7,0.7-3.7-0.2c-0.9-0.8-1-2.1-1.1-3.3c-0.1-0.8-0.1-1.9-0.1-3c0.1-2.9,0.8-6.2,3.5-7.1
	c1.1-0.3,2.3-0.1,3.2,0.7c1.2,1,1.5,2.7,1.6,4.3C496.2,252.5,495.9,254.4,495.1,256.2z"/>
<polygon class="st1" points="504.4,265.9 504.3,266 504.4,266.1 "/>
<g>
	<g>
		<polygon class="st6" points="644.9,245.2 644.9,245.2 644.9,245.3 		"/>
		<polygon class="st6" points="553.9,198.1 553.9,198.1 553.9,198.1 		"/>
		<path class="st6" d="M585.5,196.8C585.5,196.8,585.5,196.8,585.5,196.8C585.6,196.8,585.6,196.8,585.5,196.8
			C585.6,196.8,585.5,196.8,585.5,196.8z"/>
		<path class="st6" d="M624,254c0.3-1.6,0.3-3.2,0.2-4.8c-0.2-2.2-0.7-4.4-2-6.2c-1.6-2.2-4.2-3.4-6.9-3.8c-2.7-0.3-5.4,0.1-7.9,0.9
			c-2.4,0.8-5,2.7-6.1,5.2c-1.3,3-1.2,7.6-0.8,10.7c0.5,4.2,2,8.9,5.7,10.9c2.6,1.4,5.9,1.1,8.7-0.1
			C619.9,264.7,623.1,259.5,624,254z M610.8,259.6c-0.6,0-1.2-0.1-1.6-0.5c-0.3-0.3-0.5-0.8-0.7-1.2c-1.4-3.5-1.6-8.9,1.7-11.5
			c1-0.7,2.3-1.1,3.4-0.5c1.1,0.5,1.7,1.7,2.1,2.9c0.9,3.3,0,7-2.4,9.4c-0.5,0.6-1.2,1.1-1.9,1.3C611.2,259.5,611,259.6,610.8,259.6
			z"/>
		<path class="st6" d="M664.1,255.3c-0.8-4.8-1.1-9.7-1-14.6c0.1-2.2,0.2-4.5-0.7-6.4s-3.2-3.5-5.3-2.8c-1.7,0.6-2.5,2.6-2.6,4.4
			c0,1.8,0.6,3.5,0.9,5.3c0.7,3.6,0.5,7.4-0.8,10.9c-0.2,0.7-0.6,1.4-1.3,1.6c-0.7,0.2-1.3-0.2-1.9-0.6c-2-1.5-3.8-3.3-5.1-5.3
			c-0.8-1.1-1.6-2.4-2.9-2.8c-1-0.3-2.1,0.2-3,0.7c-2.6,1.4-4.8,3.5-6.4,6.1c-1.8-1.7-1.4-4.6-1-7c0.3-2.4,0.2-5.5-2.1-6.6
			c-1.3-0.6-2.8-0.3-4,0.5c-3.5,2.5-2.3,7.2-2.2,10.9c0.1,2.3,0.1,4.5,0.5,6.7c0.7,3.9,2.3,7.5,3.9,11.1c0.3,0.8,0.8,1.6,1.5,1.9
			c0.5,0.2,1.2,0.1,1.7-0.1c2.4-0.8,4.2-2.8,5.5-5c1.3-2.2,2.2-4.6,3.6-6.8c0.3-0.5,0.6-0.9,1.1-1.2c1.1-0.5,2.3,0.3,3.1,1.1
			c1.8,1.7,3.4,3.5,5.3,5.1c1.9,1.6,4.1,2.9,6.5,3.1s5.1-0.9,6.2-3c1.1-2,0.6-4.5,0.2-6.7C664.2,255.7,664.1,255.5,664.1,255.3z"/>
		<path class="st6" d="M598.4,245.2c-0.1-0.3-0.3-0.5-0.5-0.7c-1.1-1.1-2.6-1.4-4-2.1c-3-1.5-5-4.6-5.9-7.9
			c-0.9-3.3-0.8-6.7-0.9-10.1c0-7.5-0.4-14.9-1.2-22.4c-0.3-2.3-0.9-4.9-3-5.8c-2-0.8-4.3,0.6-5.2,2.6c-0.9,1.9-0.9,4.2-0.8,6.3
			c0.5,10.4,0.9,20.8,1.4,31.2c0,1.1,0.1,2.4-0.7,3.2c-0.5,0.5-1.2,0.8-2,0.9c-2.7,0.7-5.4,0.9-8.2,0.8c-1.2-0.1-2.5-0.3-3.3-1.1
			c-1-1-1.1-2.5-1.2-3.9c-0.4-10.7-0.9-21.4-1.3-32.1c-0.1-1.7-0.1-3.4-0.8-5c-0.6-1.6-1.9-3-3.6-3.3c-3.4-0.6-4.1,2.9-4.1,5.3
			c0.1,4,0.2,8.1,0.3,12.1c0.2,7.8,0.4,15.5,0.6,23.3c0,1.9-0.1,4-1.6,5.1c-1.4,1-3.4,0.6-4.8,1.5c-1.5,0.9-1.8,3.3-0.6,4.6
			c1.4,1.6,3.9,1.3,5.8,2.2c2.2,1.1,3.1,3.8,3.2,6.2c0.1,2.4-0.4,4.9-0.1,7.3c0.2,1.6,0.8,3.4,2.2,4.2c1.7,1,4.1,0.1,5.3-1.5
			c1.2-1.6,1.5-3.7,1.3-5.7c-0.1-2-0.6-3.9-0.8-5.9c-0.1-1.6,0.1-3.4,1.3-4.6c1-1,2.5-1.3,3.9-1.5c2.4-0.3,4.8-0.2,7.2,0.2
			c1,0.2,2.1,0.4,2.8,1.2c0.6,0.7,0.7,1.7,0.7,2.6c0.5,6.7,1,13.4,1.5,20.1c0.2,2.3,0.7,5.1,2.9,5.9c1.9,0.7,3.9-0.7,4.8-2.5
			c0.8-1.8,0.7-3.9,0.6-5.8c-0.4-5.8-0.8-11.5-1.1-17.3c-0.1-1.1-0.1-2.2,0.6-3c0.5-0.5,1.2-0.8,1.9-1c1.8-0.5,3.7-0.7,5.5-0.6
			c0.4,0,0.8,0,1.1-0.1C598.7,247.8,599,246.3,598.4,245.2z"/>
		<path class="st6" d="M655.6,231.6C655.6,231.6,655.6,231.6,655.6,231.6C655.6,231.6,655.6,231.6,655.6,231.6
			C655.6,231.6,655.6,231.6,655.6,231.6z"/>
	</g>
</g>
<g>
	<path class="st4" d="M177.4,355.6c-1.9-2.3-2.8-4.9-2.5-7.9c0.3-3,1.5-5.4,3.8-7.3c2-1.7,4.4-2.6,7-2.6c3.1,0,5.9,1.3,8.2,3.8
		c0.4,0.5,0.7,1,1,1.5c0.2,0.3,0.3,0.7,0.3,1.2c0,0.6-0.2,1.1-0.6,1.5c-0.4,0.4-0.9,0.6-1.5,0.6c-0.7,0-1.2-0.2-1.5-0.6
		c-0.3-0.4-0.7-0.9-1-1.3c-1.2-1.4-2.6-2.1-4.4-2.3c-1.8-0.1-3.3,0.4-4.7,1.5c-1.4,1.2-2.1,2.6-2.3,4.4c-0.1,1.8,0.4,3.3,1.5,4.7
		c0.9,0.9,2.5,1.7,4.6,2.2c3.8,0.8,6.6,2.4,8.6,4.6c2,2.4,3,5.1,3,8.2c0,0.4,0,0.8-0.1,1.2c-0.3,3.6-1.8,6.5-4.5,8.8
		c-2.4,2.1-5.2,3.1-8.3,3.1c-3.9,0-7.2-1.5-10-4.6c-0.4-0.4-0.7-0.9-1-1.3c-0.3-0.4-0.4-0.8-0.4-1.3c0-0.6,0.2-1.1,0.6-1.5
		c0.4-0.4,0.9-0.6,1.5-0.6c0.8,0,1.4,0.3,1.8,1c0.2,0.3,0.5,0.7,0.8,1c1.5,1.8,3.5,2.8,5.9,3c2.4,0.2,4.5-0.5,6.3-2
		c1.8-1.5,2.8-3.5,3-5.9c0.2-2.4-0.5-4.5-2-6.3c-1.3-1.5-3.4-2.6-6.2-3.3C181.7,358.5,179.4,357.4,177.4,355.6z"/>
	<path class="st4" d="M231.4,365.8c0,4.2-1.5,7.7-4.4,10.7c-2.9,2.9-6.5,4.4-10.7,4.4c-4.2,0-7.7-1.5-10.7-4.4
		c-2.9-2.9-4.4-6.5-4.4-10.7c0-4.2,1.5-7.7,4.4-10.7c2.9-2.9,6.5-4.4,10.7-4.4c4.2,0,7.7,1.5,10.7,4.4S231.4,361.6,231.4,365.8z
		 M216.4,355c-3,0-5.5,1-7.6,3.1c-2.1,2.1-3.1,4.6-3.1,7.6c0,3,1,5.5,3.1,7.6c2.1,2.1,4.6,3.2,7.6,3.2c3,0,5.5-1.1,7.6-3.2
		c2.1-2.1,3.1-4.6,3.1-7.6c0-3-1-5.5-3.1-7.6C221.9,356.1,219.3,355,216.4,355z"/>
	<path class="st4" d="M235.7,339.9c0-0.6,0.2-1.1,0.6-1.5s0.9-0.6,1.5-0.6s1.1,0.2,1.5,0.6c0.4,0.4,0.6,0.9,0.6,1.5v36.6h2.2
		c0.6,0,1.1,0.2,1.5,0.6c0.4,0.4,0.6,0.9,0.6,1.5s-0.2,1.1-0.6,1.5c-0.4,0.4-0.9,0.6-1.5,0.6h-4.3c-0.6,0-1.1-0.2-1.5-0.6
		c-0.4-0.4-0.6-0.9-0.6-1.5V339.9z"/>
	<path class="st4" d="M276.7,378.7c0,0.6-0.2,1.1-0.6,1.5c-0.4,0.4-0.9,0.6-1.5,0.6s-1.1-0.2-1.5-0.6c-0.4-0.4-0.6-0.9-0.6-1.5V377
		c-2.7,2.6-5.9,3.9-9.7,3.9c-3.9,0-7.2-1.4-9.9-4.1c-2.7-2.7-4.1-6-4.1-9.9v-14c0-0.6,0.2-1.1,0.6-1.5c0.4-0.4,0.9-0.6,1.5-0.6
		c0.6,0,1.1,0.2,1.5,0.6c0.4,0.4,0.6,0.9,0.6,1.5v14c0,2.7,0.9,5,2.8,6.9c1.9,1.9,4.2,2.8,6.9,2.8c2.7,0,5-0.9,6.8-2.8
		c1.9-1.9,2.8-4.2,2.8-6.9v-14c0-0.6,0.2-1.1,0.6-1.5c0.4-0.4,0.9-0.6,1.5-0.6s1.1,0.2,1.5,0.6c0.4,0.4,0.6,0.9,0.6,1.5V378.7z"/>
	<path class="st4" d="M304.4,373.5c0.6,0,1.1,0.2,1.5,0.6s0.6,0.9,0.6,1.5c0,0.6-0.2,1.1-0.7,1.6c-2.8,2.4-6.1,3.6-9.8,3.6
		c-4.2,0-7.7-1.5-10.7-4.4c-2.9-2.9-4.4-6.5-4.4-10.7c0-4.2,1.5-7.7,4.4-10.7c2.9-2.9,6.5-4.4,10.7-4.4c3.8,0,7,1.2,9.8,3.6
		c0.5,0.5,0.8,1,0.8,1.7c0,0.6-0.2,1.1-0.6,1.5c-0.4,0.4-0.9,0.6-1.5,0.6c-0.5,0-1-0.2-1.4-0.5c-2-1.8-4.4-2.7-7.1-2.7
		c-3,0-5.5,1-7.6,3.1c-2.1,2.1-3.1,4.6-3.1,7.6c0,3,1,5.5,3.1,7.6c2.1,2.1,4.6,3.2,7.6,3.2c2.7,0,5-0.9,7-2.6
		C303.5,373.6,303.9,373.5,304.4,373.5z"/>
	<path class="st4" d="M318.1,344.2c0,0.7-0.3,1.4-0.8,1.9c-0.5,0.5-1.2,0.8-1.9,0.8c-0.7,0-1.4-0.3-1.9-0.8
		c-0.5-0.5-0.8-1.2-0.8-1.9c0-0.7,0.3-1.4,0.8-1.9c0.5-0.5,1.2-0.8,1.9-0.8c0.7,0,1.4,0.3,1.9,0.8
		C317.9,342.9,318.1,343.5,318.1,344.2z M313.3,352.9c0-0.6,0.2-1.1,0.6-1.5c0.4-0.4,0.9-0.6,1.5-0.6s1.1,0.2,1.5,0.6
		c0.4,0.4,0.6,0.9,0.6,1.5v25.8c0,0.6-0.2,1.1-0.6,1.5c-0.4,0.4-0.9,0.6-1.5,0.6s-1.1-0.2-1.5-0.6c-0.4-0.4-0.6-0.9-0.6-1.5V352.9z"
		/>
	<path class="st4" d="M354.2,365.8c0,4.2-1.5,7.7-4.4,10.7c-2.9,2.9-6.5,4.4-10.7,4.4c-4.2,0-7.7-1.5-10.7-4.4
		c-2.9-2.9-4.4-6.5-4.4-10.7c0-4.2,1.5-7.7,4.4-10.7c2.9-2.9,6.5-4.4,10.7-4.4c4.2,0,7.7,1.5,10.7,4.4S354.2,361.6,354.2,365.8z
		 M339.1,355c-3,0-5.5,1-7.6,3.1c-2.1,2.1-3.1,4.6-3.1,7.6c0,3,1,5.5,3.1,7.6c2.1,2.1,4.6,3.2,7.6,3.2c3,0,5.5-1.1,7.6-3.2
		c2.1-2.1,3.1-4.6,3.1-7.6c0-3-1-5.5-3.1-7.6C344.7,356.1,342.1,355,339.1,355z"/>
	<path class="st4" d="M358.5,352.9c0-0.6,0.2-1.1,0.6-1.5c0.4-0.4,0.9-0.6,1.5-0.6s1.1,0.2,1.5,0.6c0.4,0.4,0.6,0.9,0.6,1.5v1.7
		c2.7-2.6,5.9-3.9,9.7-3.9c3.9,0,7.2,1.4,9.9,4.1s4.1,6,4.1,9.9v14c0,0.6-0.2,1.1-0.6,1.5c-0.4,0.4-0.9,0.6-1.5,0.6
		s-1.1-0.2-1.5-0.6c-0.4-0.4-0.6-0.9-0.6-1.5v-14c0-2.7-1-5-2.8-6.9c-1.9-1.9-4.2-2.8-6.8-2.8c-2.7,0-5,0.9-6.9,2.8
		c-1.9,1.9-2.8,4.2-2.8,6.9v14c0,0.6-0.2,1.1-0.6,1.5c-0.4,0.4-0.9,0.6-1.5,0.6s-1.1-0.2-1.5-0.6c-0.4-0.4-0.6-0.9-0.6-1.5V352.9z"
		/>
	<path class="st4" d="M414.2,373.5c0.6,0,1.1,0.2,1.5,0.6c0.4,0.4,0.6,0.9,0.6,1.5s-0.2,1.1-0.6,1.5c-2.8,2.4-6.1,3.6-9.8,3.6
		c-4.2,0-7.7-1.5-10.7-4.4c-2.9-2.9-4.4-6.5-4.4-10.7c0-4.2,1.5-7.7,4.4-10.7c2.9-2.9,6.5-4.4,10.7-4.4c4.2,0,7.7,1.5,10.7,4.4
		s4.4,6.5,4.4,10.7c0,0.6-0.2,1.1-0.6,1.5s-0.9,0.6-1.5,0.6h-23.5c0.4,2.1,1.4,3.9,3,5.5c2.1,2.1,4.6,3.2,7.6,3.2
		c2.7,0,5-0.9,6.9-2.6C413.2,373.7,413.7,373.5,414.2,373.5z M416.5,363.6c-0.4-2.1-1.4-3.9-3-5.5c-2.1-2.1-4.6-3.1-7.6-3.1
		c-3,0-5.5,1-7.6,3.1c-1.6,1.6-2.6,3.4-3,5.5H416.5z"/>
	<path class="st4" d="M430.6,365.8c-1.6-0.6-2.8-1.2-3.4-1.9c-1.3-1.3-1.9-2.8-1.9-4.5c0-1.8,0.7-3.3,2-4.7c2.6-2.6,6-4,10.1-4
		c4.5,0,8.4,1.8,11.6,5.4c0.3,0.3,0.4,0.8,0.4,1.3c0,0.6-0.2,1.1-0.6,1.5c-0.4,0.4-0.9,0.6-1.5,0.6c-0.6,0-1.1-0.2-1.4-0.6
		c-0.4-0.4-0.6-0.6-0.8-0.8c-2.1-2.1-4.6-3.1-7.6-3.1c-3,0-5.4,0.9-7.1,2.8c-0.4,0.5-0.6,1.1-0.6,1.9c0.1,0.8,0.5,1.4,1.3,1.7
		l13.2,4.4c1.6,0.6,2.8,1.2,3.4,1.9c1.3,1.3,1.9,2.8,1.9,4.5c0,1.8-0.7,3.3-2,4.7c-2.6,2.6-6,4-10.1,4c-4.5,0-8.4-1.8-11.6-5.4
		c-0.3-0.4-0.4-0.8-0.4-1.3c0-0.6,0.2-1.1,0.6-1.5c0.4-0.4,0.9-0.6,1.5-0.6c0.6,0,1.1,0.2,1.4,0.6c0.4,0.4,0.6,0.6,0.8,0.8
		c2.1,2.1,4.6,3.2,7.6,3.2c3,0,5.4-0.9,7.1-2.8c0.4-0.5,0.6-1.1,0.6-1.9c-0.1-0.8-0.5-1.4-1.3-1.7L430.6,365.8z"/>
	<path class="st4" d="M479.5,365.8l-5.4,13.8c-0.1,0.2-0.3,0.5-0.5,0.7c-0.4,0.4-0.9,0.6-1.5,0.6s-1.1-0.2-1.5-0.6
		c-0.4-0.4-0.6-0.9-0.6-1.5c0-0.3,0.1-0.6,0.2-0.9l15-38.5c0.1-0.3,0.3-0.6,0.6-0.9c0.4-0.4,0.9-0.6,1.5-0.6s1.1,0.2,1.5,0.6
		c0.3,0.3,0.4,0.6,0.5,0.9l15,38.5c0.1,0.3,0.2,0.6,0.2,0.9c0,0.6-0.2,1.1-0.6,1.5c-0.4,0.4-0.9,0.6-1.5,0.6s-1.1-0.2-1.5-0.6
		c-0.2-0.2-0.4-0.5-0.5-0.7l-5.4-13.8H479.5z M493.3,361.5l-6.1-15.6l-6.1,15.6H493.3z"/>
	<path class="st4" d="M534.6,376.3c0,0-0.1,0.1-0.1,0.1c-2.9,2.9-6.5,4.4-10.7,4.4c-4.2,0-7.7-1.5-10.7-4.4
		c-2.9-2.9-4.4-6.5-4.4-10.7c0-4.2,1.5-7.7,4.4-10.7c2.9-2.9,6.5-4.4,10.7-4.4c4.2,0,7.7,1.5,10.7,4.4c2.9,2.9,4.4,6.5,4.4,10.7
		v15.1c0,3.1-1.1,5.9-3.4,8.2c-3.2,3.2-7,4.7-11.4,4.7s-8.3-1.6-11.4-4.7c-1.2-1.1-2.1-2.4-2.9-3.7c-0.2-0.3-0.3-0.7-0.3-1.1
		c0-0.6,0.2-1.1,0.6-1.5c0.4-0.4,0.9-0.6,1.5-0.6s1.1,0.2,1.5,0.6c0.2,0.2,0.3,0.4,0.5,0.6c0.5,1,1.2,1.9,2.1,2.7
		c2.3,2.3,5.1,3.5,8.4,3.5c3.3,0,6.1-1.2,8.4-3.5c1.4-1.7,2.2-3.4,2.2-5.1V376.3z M523.8,355c-3,0-5.5,1-7.6,3.1
		c-2.1,2.1-3.1,4.6-3.1,7.6c0,3,1,5.5,3.1,7.6c2.1,2.1,4.6,3.2,7.6,3.2c3,0,5.5-1.1,7.6-3.2c2.1-2.1,3.1-4.6,3.1-7.6
		c0-3-1-5.5-3.1-7.6C529.3,356.1,526.8,355,523.8,355z"/>
	<path class="st4" d="M543.2,352.9c0-0.6,0.2-1.1,0.6-1.5c0.4-0.4,0.9-0.6,1.5-0.6s1.1,0.2,1.5,0.6c0.4,0.4,0.6,0.9,0.6,1.5v2.4
		c3-3,6.6-4.5,10.8-4.5c2.1,0,4,0.4,5.8,1.1c0.3,0.1,0.6,0.3,0.9,0.6c0.4,0.4,0.6,0.9,0.6,1.5c0,0.6-0.2,1.1-0.6,1.5
		c-0.4,0.4-0.9,0.6-1.5,0.6c-0.3,0-0.7-0.1-0.9-0.2c-1.3-0.5-2.7-0.8-4.2-0.8c-3,0-5.5,1-7.6,3.1c-2.1,2.1-3.1,4.6-3.1,7.6v12.9
		c0,0.6-0.2,1.1-0.6,1.5c-0.4,0.4-0.9,0.6-1.5,0.6s-1.1-0.2-1.5-0.6c-0.4-0.4-0.6-0.9-0.6-1.5V352.9z"/>
	<path class="st4" d="M579.3,341.4l-6.5,6.5c-0.4,0.4-0.9,0.6-1.5,0.6c-0.6,0-1.1-0.2-1.5-0.6c-0.4-0.4-0.6-0.9-0.6-1.5
		c0-0.6,0.2-1,0.5-1.5l6.5-6.5c0.4-0.4,0.9-0.6,1.5-0.6s1.1,0.2,1.5,0.6c0.4,0.4,0.6,0.9,0.6,1.5C579.9,340.5,579.7,341,579.3,341.4
		z M571.2,352.9c0-0.6,0.2-1.1,0.6-1.5c0.4-0.4,0.9-0.6,1.5-0.6s1.1,0.2,1.5,0.6c0.4,0.4,0.6,0.9,0.6,1.5v25.8
		c0,0.6-0.2,1.1-0.6,1.5c-0.4,0.4-0.9,0.6-1.5,0.6s-1.1-0.2-1.5-0.6c-0.4-0.4-0.6-0.9-0.6-1.5V352.9z"/>
	<path class="st4" d="M605.4,373.5c0.6,0,1.1,0.2,1.5,0.6c0.4,0.4,0.6,0.9,0.6,1.5c0,0.6-0.2,1.1-0.7,1.6c-2.8,2.4-6.1,3.6-9.8,3.6
		c-4.2,0-7.7-1.5-10.7-4.4c-2.9-2.9-4.4-6.5-4.4-10.7c0-4.2,1.5-7.7,4.4-10.7c2.9-2.9,6.5-4.4,10.7-4.4c3.8,0,7,1.2,9.8,3.6
		c0.5,0.5,0.8,1,0.8,1.7c0,0.6-0.2,1.1-0.6,1.5c-0.4,0.4-0.9,0.6-1.5,0.6c-0.5,0-1-0.2-1.4-0.5c-2-1.8-4.4-2.7-7.1-2.7
		c-3,0-5.5,1-7.6,3.1c-2.1,2.1-3.1,4.6-3.1,7.6c0,3,1,5.5,3.1,7.6c2.1,2.1,4.6,3.2,7.6,3.2c2.7,0,5-0.9,7-2.6
		C604.5,373.6,604.9,373.5,605.4,373.5z"/>
	<path class="st4" d="M642.3,365.8c0,4.2-1.5,7.7-4.4,10.7c-2.9,2.9-6.5,4.4-10.7,4.4c-4.2,0-7.7-1.5-10.7-4.4
		c-2.9-2.9-4.4-6.5-4.4-10.7c0-4.2,1.5-7.7,4.4-10.7c2.9-2.9,6.5-4.4,10.7-4.4c4.2,0,7.7,1.5,10.7,4.4
		C640.8,358.1,642.3,361.6,642.3,365.8z M627.2,355c-3,0-5.5,1-7.6,3.1c-2.1,2.1-3.1,4.6-3.1,7.6c0,3,1,5.5,3.1,7.6
		c2.1,2.1,4.6,3.2,7.6,3.2c3,0,5.5-1.1,7.6-3.2c2.1-2.1,3.1-4.6,3.1-7.6c0-3-1-5.5-3.1-7.6C632.7,356.1,630.2,355,627.2,355z"/>
	<path class="st4" d="M646.6,339.9c0-0.6,0.2-1.1,0.6-1.5c0.4-0.4,0.9-0.6,1.5-0.6s1.1,0.2,1.5,0.6s0.6,0.9,0.6,1.5v36.6h2.2
		c0.6,0,1.1,0.2,1.5,0.6c0.4,0.4,0.6,0.9,0.6,1.5s-0.2,1.1-0.6,1.5c-0.4,0.4-0.9,0.6-1.5,0.6h-4.3c-0.6,0-1.1-0.2-1.5-0.6
		c-0.4-0.4-0.6-0.9-0.6-1.5V339.9z"/>
	<path class="st4" d="M685.4,376.3c-3,3-6.6,4.5-10.8,4.5c-4.2,0-7.7-1.5-10.7-4.4c-2.9-2.9-4.4-6.5-4.4-10.7
		c0-4.2,1.5-7.7,4.4-10.7c2.9-2.9,6.5-4.4,10.7-4.4c4.2,0,7.7,1.5,10.7,4.4c2.9,2.9,4.4,6.5,4.4,10.7v12.9c0,0.6-0.2,1.1-0.6,1.5
		c-0.4,0.4-0.9,0.6-1.5,0.6s-1.1-0.2-1.5-0.6c-0.4-0.4-0.6-0.9-0.6-1.5V376.3z M674.6,355c-3,0-5.5,1-7.6,3.1
		c-2.1,2.1-3.1,4.6-3.1,7.6c0,3,1,5.5,3.1,7.6c2.1,2.1,4.6,3.2,7.6,3.2c3,0,5.5-1.1,7.6-3.2c2.1-2.1,3.1-4.6,3.1-7.6
		c0-3-1-5.5-3.1-7.6C680.1,356.1,677.6,355,674.6,355z"/>
	<path class="st4" d="M699.3,365.8c-1.6-0.6-2.8-1.2-3.4-1.9c-1.3-1.3-1.9-2.8-1.9-4.5c0-1.8,0.7-3.3,2-4.7c2.6-2.6,6-4,10.1-4
		c4.5,0,8.4,1.8,11.6,5.4c0.3,0.3,0.4,0.8,0.4,1.3c0,0.6-0.2,1.1-0.6,1.5c-0.4,0.4-0.9,0.6-1.5,0.6s-1.1-0.2-1.4-0.6
		c-0.4-0.4-0.6-0.6-0.8-0.8c-2.1-2.1-4.6-3.1-7.6-3.1c-3,0-5.4,0.9-7.1,2.8c-0.4,0.5-0.6,1.1-0.6,1.9c0.1,0.8,0.5,1.4,1.3,1.7
		l13.2,4.4c1.6,0.6,2.8,1.2,3.4,1.9c1.3,1.3,1.9,2.8,1.9,4.5c0,1.8-0.7,3.3-2,4.7c-2.6,2.6-6,4-10.1,4c-4.5,0-8.4-1.8-11.6-5.4
		c-0.3-0.4-0.4-0.8-0.4-1.3c0-0.6,0.2-1.1,0.6-1.5c0.4-0.4,0.9-0.6,1.5-0.6c0.6,0,1.1,0.2,1.4,0.6c0.4,0.4,0.6,0.6,0.8,0.8
		c2.1,2.1,4.6,3.2,7.6,3.2c3,0,5.4-0.9,7.1-2.8c0.4-0.5,0.6-1.1,0.6-1.9c-0.1-0.8-0.5-1.4-1.3-1.7L699.3,365.8z"/>
</g>
<path class="st5" d="M735.4,185.6c-59.3-22.4-124.3-35-186.5-22.4c-9.8,2-19.9,4.6-29.8,2.8c-10.6-1.9-19.7-8.7-27.7-15.9
	c-8.1-7.2-15.7-15.1-22.5-23.6c-9.2-11.4,4.2-12.7,14.5-14c23.5-2.9,47.3-0.5,70.7,3.1C618.9,125.6,683.6,145.6,735.4,185.6z"/>
<path class="st9" d="M773.1,204.2C697.3,151.3,614,108.2,524.8,84c-37-10-75-16.7-113.3-19.5c-38.4-2.8-77-1.6-115.1,4
	c-12,1.8-23.9,4-35.7,6.7C257,76.1,249,77,246,79.7c-1.3,1.1-1.3,2.8-0.1,4.2c1.6,1.9,4.9,0.9,6.8,0.3c30.5-9.9,62.4-17.1,94.5-16.2
	s64.6,10.6,89.2,31.3c7.4,6.2,14.2,13.4,23.2,16.9c10.8,4.2,22.9,2.3,34.4,1.2c49.9-5,100.3,5.3,147.3,22.8
	c47,17.5,91,41.9,134.8,66.3C775.2,205.6,774.1,204.9,773.1,204.2z"/>
<g>
	<g>
		<polygon class="st6" points="84.9,252.7 84.9,252.7 84.9,252.7 		"/>
		<path class="st6" d="M480.6,118.5c-18.7-1.2-36.6-19.4-52.1-30C394.7,65.2,350.3,60.5,309.8,67C224.5,80.6,173.3,90,89.1,169.9
			c-15.6,14.8-17.9,40.8-11.9,61.5c5.8,19.9,21.8,35,38.6,47.1c24,17.4,51,30.7,79.5,39.1c18.5,5.5,38.4,8.9,57,3.7
			c18.3-5.1,33.5-18.1,45.2-33c11.7-14.9,20.5-31.9,30.1-48.3c16.9-28.7,37-55.7,61.9-77.9C414.4,140.1,448,125.7,480.6,118.5z
			 M252.8,319.4c-0.2,0.1-0.4,0.3-0.6,0.4C252.5,319.7,252.6,319.6,252.8,319.4z M358.3,191.5l0.3,0.3
			C358.5,191.7,358.3,191.5,358.3,191.5L358.3,191.5z M358.8,191.9L358.8,191.9L358.8,191.9C358.9,192,358.9,192,358.8,191.9z"/>
	</g>
</g>
<g>
	<path class="st4" d="M732.6,386.2l-1.5-4.9v4.9H730v-6h2.2l1,3.6l1.1-3.6h2.2v6h-1.4v-4.9l-1.5,4.9H732.6z"/>
	<path class="st4" d="M738.9,386.2h-1.3v-1.4h1.3V386.2z"/>
	<path class="st4" d="M741.4,383.8v2.4H740v-6h2.6c0.5,0,0.9,0.1,1.2,0.2c0.3,0.1,0.5,0.3,0.7,0.6c0.2,0.3,0.3,0.6,0.3,1
		c0,0.7-0.3,1.2-1,1.5l1.1,2.6h-1.6l-0.9-2.4H741.4z M741.4,381.3v1.5h0.9c0.3,0,0.5,0,0.6-0.1c0.1,0,0.2-0.1,0.3-0.3
		c0.1-0.1,0.2-0.3,0.2-0.5c0-0.2-0.1-0.3-0.2-0.4c-0.1-0.1-0.2-0.2-0.3-0.2c-0.1,0-0.3,0-0.7,0H741.4z"/>
	<path class="st4" d="M747.1,386.2h-1.3v-1.4h1.3V386.2z"/>
</g>
<circle class="st8" cx="738.3" cy="383.4" r="10.4"/>
</svg>
