<svg version="1.1" id="Layer_1" xmlns="http://www.w3.org/2000/svg" xmlns:xlink="http://www.w3.org/1999/xlink" x="0px" y="0px"
	 width="100%" viewBox="0 0 526 270" enable-background="new 0 0 526 270" xml:space="preserve">
<path fill="#000000" opacity="1.000000" stroke="none" 
	d="
M388.000000,271.000000 
	C258.666687,271.000000 129.833344,271.000000 1.000017,271.000000 
	C1.000012,181.000015 1.000012,91.000023 1.000006,1.000029 
	C176.333313,1.000020 351.666626,1.000020 527.000000,1.000010 
	C527.000000,90.999969 527.000000,180.999939 527.000000,270.999939 
	C480.833344,271.000000 434.666656,271.000000 388.000000,271.000000 
M349.000427,121.980286 
	C349.000427,121.980286 349.043152,121.942062 348.944031,121.459770 
	C348.944031,121.459770 348.754883,121.004639 348.864624,120.254921 
	C348.851532,119.499077 348.838440,118.743240 348.983582,117.064857 
	C348.987976,111.911858 349.320465,106.725708 348.805176,101.625214 
	C348.641785,100.008232 346.217224,98.619705 344.827423,97.126633 
	C343.906342,98.579224 342.244202,100.003479 342.187408,101.489113 
	C341.876282,109.624626 341.959045,117.775200 341.267578,126.102310 
	C338.981689,126.440224 336.695770,126.778137 333.829559,127.201836 
	C333.475586,122.015915 333.167603,117.503754 332.994324,112.075027 
	C333.000214,108.909691 333.112762,105.739777 332.977509,102.580482 
	C332.873047,100.140259 332.187866,97.417412 329.080658,98.276291 
	C327.758850,98.641647 326.260590,101.199730 326.199066,102.813034 
	C325.901398,110.618744 326.064850,118.442032 326.064850,125.732071 
	C323.689209,127.100662 321.884369,128.140427 320.038086,128.308899 
	C320.014160,127.311905 320.289307,126.174240 319.901001,125.348656 
	C319.199463,123.857178 318.101471,122.552162 317.169037,121.169281 
	C316.446472,122.572655 315.257599,123.925514 315.098938,125.389977 
	C314.773834,128.391418 315.001404,131.452698 315.001404,134.489349 
	C314.641296,134.921280 314.281189,135.353226 313.921112,135.785156 
	C309.980072,129.917953 305.759796,128.826233 300.991394,133.958694 
	C300.991394,132.059570 301.258331,130.361023 300.907623,128.801376 
	C300.622955,127.535507 299.596802,126.436378 298.899536,125.263298 
	C297.597748,126.060860 296.082581,126.655724 295.066956,127.725075 
	C294.353333,128.476486 294.319946,129.873917 293.345612,130.976791 
	C292.644684,129.608322 292.082672,127.178230 291.217468,127.064987 
	C288.302246,126.683411 284.501801,126.061554 282.497223,127.526161 
	C280.073883,129.296753 279.136536,133.101105 277.475586,136.174271 
	C277.037598,134.643097 276.425201,132.982651 276.104309,131.267654 
	C275.620361,128.681335 275.729187,125.922859 274.887146,123.478333 
	C273.410950,119.193016 270.077759,118.948280 267.194214,122.432098 
	C266.254211,123.567802 264.671600,124.821381 263.345947,124.863708 
	C259.687286,124.980484 259.122253,126.891975 258.903107,130.002213 
	C258.642975,133.694305 257.666199,137.335907 256.302063,140.689835 
	C254.058014,140.132126 251.633774,139.942856 249.602783,138.949524 
	C242.748734,135.597305 236.003204,132.017410 229.282730,128.400894 
	C226.798538,127.064056 226.195297,124.671761 227.467392,122.030060 
	C228.145737,122.974640 228.757050,123.825882 229.019348,124.191124 
	C236.041275,120.347275 242.631042,116.739998 249.289001,113.095390 
	C248.378128,111.064041 247.754242,109.672699 247.132797,108.286804 
	C241.908386,111.135193 237.034943,113.792236 232.161514,116.449272 
	C231.404510,114.209137 231.628189,113.280586 231.714737,112.339417 
	C231.935013,109.943718 233.053818,106.808136 229.478439,106.256851 
	C225.636093,105.664391 226.442200,108.984619 225.916077,111.354820 
	C225.103546,115.015297 227.525208,119.952713 221.965027,122.027794 
	C221.472107,122.211754 221.225937,125.401909 221.847687,125.858803 
	C227.108704,129.724869 225.861618,135.663071 227.008850,140.824005 
	C227.207321,141.716873 227.429138,142.604553 227.623535,143.424377 
	C235.510910,143.211227 229.545792,137.095642 232.114990,134.067566 
	C235.886002,136.448456 239.351151,139.517151 243.395706,140.947952 
	C247.641159,142.449814 252.441925,142.381897 257.830261,143.000610 
	C261.246063,143.454025 263.265686,142.367279 264.374847,138.715012 
	C265.569824,134.780212 267.726227,131.137375 270.079895,126.028435 
	C270.930939,129.494980 271.521423,131.334946 271.807343,133.221054 
	C272.103363,135.173706 271.914185,137.205994 272.269653,139.142426 
	C273.320496,144.867096 274.994080,145.612503 280.005066,142.805161 
	C285.503906,146.998230 290.141449,146.005371 293.453461,139.651367 
	C293.784180,139.119400 294.114929,138.587448 294.606659,137.796494 
	C296.239502,141.231857 296.237244,146.774857 301.967499,144.537582 
	C303.432587,143.965576 303.781799,140.535553 304.922363,137.734146 
	C306.898956,138.108704 310.303711,138.753876 313.609039,139.380219 
	C314.563934,140.781036 315.435608,142.580688 316.830475,143.763031 
	C317.209198,144.084045 320.179718,142.578354 320.206177,141.847519 
	C320.278564,139.849091 319.416046,137.816803 318.809326,135.328644 
	C319.301788,134.574554 320.169525,133.245880 321.695374,132.169662 
	C323.443604,132.816071 325.191864,133.462463 327.028961,134.550735 
	C327.028961,134.550735 327.135010,134.988785 327.143890,135.508392 
	C327.415924,135.706802 327.687988,135.905197 328.067444,136.562576 
	C328.067444,136.562576 328.184845,137.019058 328.037720,137.889236 
	C328.037720,140.117889 328.037720,142.346542 328.037720,144.525558 
	C334.609161,144.894394 336.046417,142.824036 333.999298,136.243011 
	C334.339508,135.166702 334.679718,134.090393 335.898193,132.962784 
	C338.238831,133.009521 340.579437,133.056274 342.993530,133.016647 
	C342.993530,133.016647 342.898590,133.078583 342.922943,133.914734 
	C343.330383,136.940186 343.737793,139.965637 344.083160,143.483810 
	C344.083160,143.483810 344.153809,143.975372 344.019897,144.799698 
	C344.351501,146.705231 344.382568,148.740448 345.127747,150.467529 
	C345.573090,151.499695 347.638489,152.919556 348.104156,152.651459 
	C349.472595,151.863571 351.359894,150.305176 351.341766,149.073547 
	C351.267883,144.056320 350.558350,139.048447 350.575287,133.791000 
	C351.023560,133.477631 351.471832,133.164276 352.737518,132.970581 
	C353.829376,132.907608 354.921265,132.844635 356.556000,133.131561 
	C356.777374,133.729462 356.998749,134.327362 357.105438,135.773575 
	C357.146301,137.194962 357.187134,138.616348 357.236389,140.517197 
	C357.410675,140.806900 357.661072,140.995758 358.086029,141.567612 
	C358.086029,141.567612 358.254242,142.031845 358.266632,142.485565 
	C358.436035,142.768341 358.685059,142.922653 359.289185,143.607758 
	C364.797638,147.215576 366.667725,146.672012 373.536011,139.491669 
	C375.750946,141.347733 374.900604,147.300797 379.841003,145.111847 
	C382.451080,143.955414 384.092438,140.612503 386.214142,138.208038 
	C387.996979,139.529770 389.674011,141.231537 391.705444,142.145096 
	C393.589844,142.992554 396.426910,143.943420 397.791473,143.114761 
	C399.222626,142.245636 399.980652,139.320938 400.003998,137.282837 
	C400.049042,133.347305 399.590332,129.363525 398.884766,125.482590 
	C398.599670,123.914223 397.119843,122.563057 396.183685,121.113052 
	C395.137543,122.658180 393.514282,124.088737 393.179535,125.775078 
	C392.667755,128.353104 393.045258,131.107651 393.045258,134.600189 
	C388.221771,131.984070 385.353882,124.366943 380.166473,132.904602 
	C380.029358,131.398636 380.079742,130.873520 379.922760,130.420212 
	C379.324799,128.693634 378.659912,126.990234 378.020020,125.278175 
	C376.597717,126.076286 375.247192,127.099121 373.725220,127.585037 
	C372.864258,127.859917 371.721680,127.252800 370.613281,126.338409 
	C369.095673,125.962166 367.578094,125.585922 365.497345,125.159012 
	C365.310638,125.184601 365.123932,125.210190 364.274963,125.083382 
	C363.517883,125.385612 362.760773,125.687836 361.997040,125.997047 
	C361.997040,125.997047 361.989868,126.003860 361.510315,126.162842 
	C361.330170,126.438629 361.150055,126.714417 361.002045,126.999855 
	C361.002045,126.999855 360.981567,126.973076 360.285645,127.292282 
	C358.541046,127.582962 356.796417,127.873650 354.280426,128.037292 
	C350.778503,128.220169 349.272827,126.304169 349.496033,122.902184 
	C349.588531,122.771606 349.775360,122.540657 349.759308,122.525574 
	C349.540039,122.319542 349.292755,122.143349 349.000427,121.980286 
M339.018311,55.999588 
	C339.018311,55.999588 339.067078,55.959064 338.796082,55.388260 
	C338.191956,55.293182 337.587860,55.198109 336.620361,54.992237 
	C336.620361,54.992237 336.240723,54.978275 335.952881,54.485760 
	C335.616974,54.350857 335.281036,54.215950 334.594055,53.978226 
	C334.594055,53.978226 334.228241,53.979546 333.770233,53.399017 
	C330.537811,52.238415 327.305420,51.077812 323.788696,49.383842 
	C323.213684,49.239960 322.638702,49.096081 321.659454,48.331478 
	C320.730927,48.018257 319.809875,47.680313 318.872650,47.395718 
	C310.931641,44.984383 302.987640,42.582764 294.238861,40.070400 
	C293.153564,40.059666 292.068237,40.048931 290.705475,39.651440 
	C290.442871,39.370308 290.150696,39.335228 289.812500,39.317753 
	C289.812500,39.317753 289.640839,39.166122 289.731384,38.536674 
	C287.480865,38.003090 285.230347,37.469505 283.000336,37.002499 
	C283.000336,37.002499 283.066528,36.980793 282.640350,36.329838 
	C278.473633,35.630356 274.306946,34.930870 269.325745,34.110306 
	C267.203674,33.858055 265.081604,33.605804 262.172729,33.194382 
	C261.105164,33.117825 260.037628,33.041267 258.908478,32.168201 
	C254.605118,31.419977 250.301743,30.671751 246.011871,29.989676 
	C246.011871,29.989676 246.069290,29.954191 245.592728,29.278521 
	C243.057144,29.172340 240.521545,29.066162 237.991211,29.009470 
	C237.991211,29.009470 238.037628,28.991541 237.567612,28.313856 
	C234.529221,28.521294 231.490829,28.728731 228.062607,28.539194 
	C227.700912,28.557074 227.339203,28.574951 226.790726,28.497065 
	C226.790726,28.497065 226.630249,28.632347 226.607895,28.528917 
	C226.607895,28.528917 226.643539,28.423185 226.674271,27.668301 
	C216.643219,27.446634 206.612640,27.190191 196.580460,27.049149 
	C195.382614,27.032309 194.175964,27.643847 192.052856,28.011847 
	C186.828537,28.337965 181.551926,28.312201 176.393082,29.078905 
	C169.886078,30.045975 163.475159,31.659708 156.210480,33.005234 
	C152.107773,34.320026 148.005066,35.634819 143.138504,37.032818 
	C140.422516,37.761211 137.706512,38.489605 134.189926,39.081352 
	C126.099701,42.065933 118.009476,45.050510 109.346436,48.098183 
	C108.905037,48.390720 108.463638,48.683258 107.256157,49.008804 
	C98.502647,53.670761 89.749146,58.332718 81.000000,63.000000 
	C81.000000,63.000000 80.995026,62.994667 80.276329,63.013809 
	C68.944016,69.721527 58.803242,77.950714 49.937321,87.642410 
	C47.178165,90.658546 45.396301,94.568703 42.828568,98.706902 
	C41.203987,102.761452 39.579407,106.815994 37.299904,111.309761 
	C34.760300,117.273697 35.927872,124.194092 40.053673,127.774979 
	C43.137794,131.532562 46.221916,135.290146 49.433540,139.686371 
	C50.169239,140.734650 50.720131,142.007050 51.672588,142.792480 
	C55.815842,146.209045 59.814091,149.907120 64.352318,152.715469 
	C72.036331,157.470520 80.088333,161.630905 88.004639,166.001709 
	C88.004639,166.001709 87.964005,166.018173 88.268456,166.658478 
	C94.319725,169.019043 100.217171,171.957184 106.454712,173.618286 
	C118.924118,176.939026 131.595291,180.194244 144.593811,172.915833 
	C145.728455,171.949509 146.863098,170.983185 148.004883,170.005936 
	C148.004883,170.005936 148.016434,169.999802 148.691956,169.962891 
	C150.134872,168.649658 151.577789,167.336426 153.000000,166.000000 
	C153.000000,166.000000 153.022705,166.021164 153.573700,165.829941 
	C154.038956,165.224838 154.504227,164.619751 155.015091,164.020355 
	C155.015091,164.020355 155.020264,163.974686 155.501495,163.857605 
	C155.813766,163.668732 155.968826,163.391830 156.024368,163.021027 
	C156.024368,163.021027 156.019592,162.963211 156.647614,162.719543 
	C158.222946,161.539032 160.247482,160.665497 161.298874,159.126938 
	C167.046234,150.716644 172.513199,142.115524 178.155075,133.632187 
	C185.709625,122.272850 193.083862,110.780014 201.042389,99.708862 
	C204.786179,94.500854 209.754578,90.180214 214.045166,85.348351 
	C214.525940,84.806931 214.203110,83.551933 214.199463,82.628799 
	C214.199463,82.628799 214.159149,82.593781 214.081009,82.723953 
	C214.081009,82.723953 214.348816,82.628304 215.024567,82.674164 
	C215.675980,82.470863 216.327393,82.267563 217.682068,81.982819 
	C221.433014,79.196098 225.200058,76.430687 228.928406,73.614067 
	C230.930206,72.101799 232.865524,70.501549 235.156754,68.329277 
	C236.760117,67.478752 238.363464,66.628220 240.766754,65.865379 
	C243.041489,65.205688 245.305511,64.505875 247.593430,63.895634 
	C251.103973,62.959301 254.630936,62.084599 258.338409,61.707848 
	C258.920685,62.129772 259.502960,62.551693 260.235321,63.537441 
	C260.815521,64.028320 261.395691,64.519196 262.038971,65.677788 
	C263.024170,66.786903 264.009369,67.896019 265.000000,69.000000 
	C265.000000,69.000000 264.994843,69.005486 265.165924,69.630005 
	C266.438049,70.761902 267.710205,71.893799 269.000000,72.999451 
	C269.000000,72.999451 268.973633,73.017044 269.017090,73.718826 
	C270.340240,74.823502 271.663361,75.928177 273.115479,77.526108 
	C273.400513,77.688072 273.685547,77.850044 274.185120,78.665009 
	C277.107452,80.907898 279.783173,83.630379 283.006561,85.287735 
	C288.650696,88.189758 294.734406,89.266075 301.657349,86.917786 
	C302.094025,86.864677 302.530670,86.811569 303.808716,86.939308 
	C307.464752,86.210327 311.120819,85.481339 315.147980,84.887535 
	C315.147980,84.887535 315.542358,84.899391 315.542358,84.899391 
	C315.542358,84.899391 315.914856,84.769318 316.705994,84.954971 
	C325.919342,84.628517 335.130707,84.171753 344.346893,84.030968 
	C348.905304,83.961334 353.472595,84.473961 358.681030,84.870628 
	C359.119598,84.915253 359.558197,84.959869 360.338989,85.749779 
	C368.874603,87.514870 377.410187,89.279961 385.994354,91.005318 
	C385.994354,91.005318 385.959717,91.057518 386.259460,91.733879 
	C389.517029,92.747818 392.774628,93.761757 396.763580,94.935074 
	C398.166504,95.318436 399.569427,95.701797 401.265747,96.747513 
	C402.854095,97.091019 404.442413,97.434525 406.478729,97.931015 
	C406.478729,97.931015 406.943024,98.023308 407.074615,98.551231 
	C407.383881,98.622482 407.693176,98.693733 408.657715,98.895653 
	C409.098938,98.953018 409.540131,99.010384 410.285217,99.717903 
	C414.184723,101.176865 418.084259,102.635826 422.197174,104.755760 
	C427.049072,106.609245 430.154846,112.777863 436.332001,111.356361 
	C436.594788,110.857796 436.857574,110.359230 437.120392,109.860664 
	C427.752594,103.811646 418.384827,97.762634 408.668213,91.134521 
	C402.428436,88.195541 396.188660,85.256561 389.364746,81.900032 
	C385.915344,79.925461 382.465942,77.950897 378.587097,75.386833 
	C376.618744,74.447220 374.637787,73.532944 372.684418,72.563179 
	C367.150330,69.815758 361.627533,67.045616 355.428314,63.920555 
	C350.334045,61.606510 345.239746,59.292461 339.912781,56.487988 
	C339.610992,56.304375 339.309204,56.120762 339.018311,55.999588 
M376.239288,210.976105 
	C372.888580,211.146637 369.486176,211.052582 366.226715,211.689819 
	C365.491333,211.833572 365.253967,214.524811 364.787384,216.043381 
	C366.353088,216.090073 367.976349,216.416016 369.469025,216.108383 
	C371.107941,215.770615 372.757172,215.046387 374.156616,214.120026 
	C375.295471,213.366165 376.072357,212.065521 377.240997,210.903488 
	C377.240997,210.903488 377.250702,210.583145 377.250702,210.583145 
	C377.250702,210.583145 376.992523,210.990234 376.239288,210.976105 
M450.220428,219.426285 
	C448.696289,218.161407 447.180847,216.884796 445.592346,215.706665 
	C445.556519,215.680099 444.691498,216.771530 444.213257,217.341476 
	C445.647156,218.202408 447.058502,219.105209 448.529907,219.896362 
	C448.923248,220.107880 449.499908,219.978409 450.011139,220.746475 
	C450.162567,221.382217 450.102112,222.238724 450.498505,222.619217 
	C454.093842,226.070267 456.036804,228.979553 448.740082,229.832809 
	C448.536469,229.856598 448.169128,233.000412 448.620850,233.230362 
	C449.808563,233.834991 451.630066,234.143799 452.790161,233.636063 
	C454.634827,232.828690 456.147430,231.262482 457.848846,229.980835 
	C456.813324,228.663727 456.040588,227.680847 454.541199,225.773727 
	C456.038361,225.034607 457.384216,224.370163 458.730103,223.705734 
	C458.654724,223.178070 458.579376,222.650406 458.503998,222.122757 
	C455.671967,221.412704 452.839935,220.702667 450.220428,219.426285 
M65.901352,227.773438 
	C65.901352,227.773438 65.598412,227.758606 65.598412,227.758606 
	C65.598412,227.758606 66.000305,228.000000 66.001938,228.823273 
	C65.434258,232.066864 67.317757,233.355194 70.090179,233.807632 
	C74.009384,234.447235 76.315575,232.229843 79.376656,229.960587 
	C83.844597,226.648315 83.041489,223.771744 81.797493,219.029495 
	C77.011391,224.035233 74.652596,232.085571 65.901352,227.773438 
M290.505615,221.530640 
	C292.505829,217.282104 294.506012,213.033569 296.316681,209.187592 
	C298.205658,213.010666 300.292328,217.233963 302.743958,222.195816 
	C305.395264,217.937805 303.296722,208.404892 300.424988,205.948044 
	C298.406281,204.220978 296.239807,203.462448 294.463165,205.748840 
	C292.997131,207.635483 292.606506,210.397141 291.051544,212.166718 
	C288.241882,215.364105 287.997528,218.469162 289.773560,222.098297 
	C289.773560,222.098297 289.758698,222.400238 289.758698,222.400238 
	C289.758698,222.400238 290.001221,222.001221 290.505615,221.530640 
M329.304138,212.849945 
	C326.829163,211.259735 324.576996,208.462723 320.855927,211.356888 
	C322.150757,212.743851 323.985046,213.811981 324.174774,215.118881 
	C324.470520,217.155991 323.650208,219.355118 323.302856,221.485596 
	C321.603058,220.650970 319.739716,220.035538 318.247711,218.922379 
	C316.635620,217.719635 315.370453,216.051849 313.597961,214.218781 
	C313.143707,220.983307 312.669434,226.738617 312.400238,232.503510 
	C312.213196,236.509079 317.453522,241.118942 321.950897,240.878281 
	C319.874634,238.306824 317.869690,235.823715 315.507568,232.898239 
	C325.274567,230.838669 326.216736,231.654938 325.568024,240.641937 
	C329.452911,240.565994 331.933960,239.079834 331.968140,234.918961 
	C332.000549,230.970337 330.894714,228.110657 325.946503,228.564529 
	C324.199707,228.724762 322.354431,227.811844 320.447113,227.363739 
	C323.986176,225.357788 327.105194,223.589920 331.219208,221.258072 
	C326.105408,218.036530 326.970581,215.468246 330.651550,212.985123 
	C331.296936,212.626328 331.942291,212.267532 332.587677,211.908752 
	C332.188904,211.497131 331.790131,211.085526 331.391357,210.673920 
	C330.927185,211.448883 330.462982,212.223831 329.304138,212.849945 
M180.498337,223.000641 
	C179.133377,227.947784 181.307129,231.018784 185.778976,232.780884 
	C194.236343,236.113464 201.850571,231.192535 201.787720,221.887772 
	C201.760254,217.819641 201.496140,213.027969 196.470749,210.989609 
	C191.318573,208.899841 185.106155,209.366318 182.708008,213.110596 
	C181.138077,215.561737 181.346542,219.151932 180.498337,223.000641 
M95.714325,210.001282 
	C87.906891,210.827591 85.180763,215.125488 86.011703,225.298035 
	C86.459488,230.779877 91.932808,234.262161 99.151138,233.657776 
	C103.787422,233.269592 107.813789,227.857224 107.950531,221.829330 
	C108.122681,214.240784 104.154755,210.115646 95.714325,210.001282 
M244.638397,229.248230 
	C239.547119,230.313141 237.410080,228.902527 236.367996,223.025604 
	C241.120636,223.025604 245.754898,223.025604 250.500534,223.025604 
	C250.380066,221.023987 250.067581,219.841904 250.287918,218.769257 
	C251.062439,214.998627 249.761841,211.320633 246.442825,210.664795 
	C242.738144,209.932755 238.209106,210.505356 234.784897,212.106064 
	C231.918228,213.446136 229.702042,216.904297 232.510254,220.858063 
	C232.992508,221.537064 232.677780,223.151108 232.212418,224.070679 
	C230.131943,228.181732 231.551682,230.219009 235.812210,231.090546 
	C236.994415,231.332336 237.975342,232.739532 239.134689,232.874847 
	C241.777496,233.183350 244.576080,233.469574 247.100967,232.873535 
	C248.216095,232.610291 248.819977,230.181473 250.323212,227.581863 
	C247.546616,228.396896 246.452789,228.717972 244.638397,229.248230 
M401.240784,231.852463 
	C404.080048,228.922043 405.988678,225.829071 402.928131,221.398712 
	C401.401062,223.339264 400.341187,225.351624 398.696625,226.583542 
	C397.139252,227.750137 394.190918,229.227570 393.232147,228.567368 
	C391.326843,227.255371 389.945221,224.718079 389.127045,222.410583 
	C388.120911,219.573135 388.085754,216.175369 391.686035,215.101868 
	C393.742615,214.488647 396.265045,215.192123 398.527191,215.590073 
	C400.419128,215.922882 402.237610,216.673141 404.660278,217.413193 
	C402.951508,211.007233 392.790527,207.833511 388.279205,211.261444 
	C383.990662,214.520081 382.250793,224.180725 385.068939,229.086639 
	C387.672882,233.619659 394.589172,235.012604 401.240784,231.852463 
M140.668747,233.569992 
	C145.363541,229.515533 141.001724,226.205688 140.117767,222.565598 
	C139.323334,223.132950 139.185150,223.903091 138.726883,224.247925 
	C136.634460,225.822479 134.452209,227.277664 132.302231,228.775742 
	C131.201263,226.358337 129.642761,224.034561 129.123657,221.498062 
	C128.567032,218.778336 129.214188,215.830475 128.867981,213.040237 
	C128.735199,211.970032 127.309280,211.060287 126.472618,210.077423 
	C125.653481,211.075317 124.206436,212.026398 124.127899,213.079529 
	C123.843704,216.890320 123.713829,220.765259 124.084763,224.561356 
	C124.861160,232.506973 128.856064,235.024796 136.390274,232.909027 
	C137.474762,232.604477 138.804398,233.172852 140.668747,233.569992 
M212.543991,210.749619 
	C210.466324,211.136520 208.388672,211.523422 205.997162,211.968765 
	C205.997162,215.081955 205.765244,218.733215 206.103897,222.330750 
	C206.252899,223.913742 207.562729,225.387497 208.345505,226.910843 
	C209.230377,225.326385 210.764343,223.789505 210.884644,222.148987 
	C211.338120,215.964706 214.305466,213.473297 219.229279,215.712662 
	C220.248688,216.176300 221.155090,216.888351 222.079819,217.464874 
	C225.138565,214.528366 225.071609,212.120224 221.499634,210.938309 
	C218.980362,210.104721 216.041031,210.540604 212.543991,210.749619 
M255.180328,218.008179 
	C259.385925,221.586075 263.591492,225.163971 267.862091,228.797195 
	C270.408234,223.099854 270.115417,222.498093 265.374054,220.191193 
	C263.377380,219.219742 261.683228,217.626480 259.851593,216.315872 
	C260.073181,215.785339 260.294769,215.254807 260.516357,214.724274 
	C263.118195,214.724274 265.720001,214.724274 268.499054,214.724274 
	C268.212341,209.642731 264.915466,209.951920 261.768768,210.012161 
	C257.037598,210.102783 254.890427,212.585434 255.180328,218.008179 
M72.517418,214.013718 
	C70.983765,213.483780 69.450111,212.953827 67.252678,212.194504 
	C68.091972,210.622284 68.615257,208.133713 69.741447,207.821747 
	C72.832314,206.965561 76.176414,207.023560 79.752502,206.688614 
	C80.714722,203.565704 78.756706,202.385132 75.646156,202.026932 
	C69.103706,201.273468 65.613762,203.002731 65.031517,207.314911 
	C64.104721,214.178925 67.835739,218.851898 75.475861,220.316376 
	C76.495659,217.641693 76.387520,215.443695 72.517418,214.013718 
M157.566406,210.001038 
	C153.856201,209.342041 150.513840,211.325867 150.244247,214.299164 
	C149.956497,217.472702 146.110977,221.222305 151.034073,225.127426 
	C153.613113,220.645432 153.009415,213.692017 160.378006,213.751617 
	C161.221375,214.510315 162.382797,215.555130 164.536163,217.492294 
	C164.668274,215.145599 165.225845,213.170609 164.718521,212.842575 
	C162.805283,211.605545 160.545746,210.904083 157.566406,210.001038 
M364.817139,228.804001 
	C367.300537,233.045639 370.821594,233.893127 375.477814,232.694000 
	C378.731689,231.855988 379.345886,230.348602 378.324799,227.069992 
	C368.923950,232.493607 368.408447,224.980743 367.072327,218.632797 
	C366.597321,218.793823 366.122345,218.954849 365.647339,219.115875 
	C365.178925,222.232605 364.710541,225.349319 364.817139,228.804001 
M173.968872,223.586349 
	C175.546173,226.174271 170.270920,229.444824 174.990143,232.391220 
	C174.990143,225.590317 175.123215,219.433090 174.866837,213.292099 
	C174.820953,212.193115 173.164459,211.161392 172.251617,210.098633 
	C171.504654,211.160233 170.299866,212.140610 170.094482,213.298294 
	C169.412613,217.141953 169.821793,220.750854 173.968872,223.586349 
M264.976807,230.381439 
	C261.857971,229.563309 258.739105,228.745178 254.049744,227.515076 
	C255.562637,229.962418 256.375671,232.796478 257.642487,233.016388 
	C260.434113,233.500977 263.454681,232.666855 266.381805,232.370895 
	C266.103363,231.841995 265.824890,231.313110 264.976807,230.381439 
M448.333160,210.111847 
	C447.359253,210.910400 446.385345,211.708954 444.465546,213.283081 
	C449.682617,213.761505 453.450287,214.107025 457.217926,214.452545 
	C457.558746,214.153061 457.899567,213.853592 458.240356,213.554123 
	C457.020325,212.410339 455.978058,210.784546 454.532776,210.251465 
	C452.923828,209.657990 450.948029,210.059143 448.333160,210.111847 
M156.901428,229.217560 
	C156.704544,230.536591 156.507660,231.855621 156.310776,233.174652 
	C158.090622,233.047394 160.223785,233.471237 161.543015,232.625488 
	C162.680298,231.896393 162.890610,229.721375 163.887512,227.252579 
	C160.715729,228.160141 159.159348,228.605469 156.901428,229.217560 
M411.002441,207.677948 
	C411.002441,205.606354 411.002441,203.534775 411.002441,201.463181 
	C410.790527,201.485764 410.578613,201.508347 410.366699,201.530914 
	C410.366699,208.845764 410.366699,216.160614 410.366699,223.475449 
	C410.578613,223.471085 410.790527,223.466705 411.002441,223.462326 
	C411.002441,218.517227 411.002441,213.572128 411.002441,207.677948 
M222.288040,220.574188 
	C221.949921,220.984390 221.588608,221.379944 221.307175,221.825912 
	C221.276779,221.874084 221.709579,222.214569 221.927521,222.419479 
	C222.177612,221.936157 222.427704,221.452835 222.288040,220.574188 
M295.011627,221.026245 
	C294.400818,221.144012 293.790009,221.261780 293.179230,221.379547 
	C293.267365,221.616470 293.355530,221.853394 293.443665,222.090317 
	C294.140442,221.764816 294.837219,221.439316 295.011627,221.026245 
M206.149200,231.694855 
	C206.264221,231.799118 206.379791,231.985550 206.494141,231.984802 
	C206.611404,231.984039 206.821640,231.805862 206.828278,231.695557 
	C206.862396,231.128006 206.844101,230.557312 206.844101,229.987717 
	C206.686752,229.976624 206.529388,229.965530 206.372040,229.954437 
	C206.265228,230.379044 206.158432,230.803635 206.149200,231.694855 
M410.048126,230.788971 
	C410.158020,231.208939 410.267883,231.628906 410.377747,232.048874 
	C410.559692,231.974899 410.741638,231.900940 410.923584,231.826965 
	C410.661957,231.327194 410.400330,230.827423 410.048126,230.788971 
M210.216660,231.096603 
	C210.352890,231.406891 210.489105,231.717194 210.625305,232.027481 
	C210.597717,231.646301 210.570114,231.265106 210.216660,231.096603 
M170.110229,231.521057 
	C170.277817,231.699280 170.445389,231.877502 170.612961,232.055740 
	C170.684708,231.785141 170.756454,231.514542 170.828201,231.243958 
	C170.613113,231.206329 170.398010,231.168701 170.110229,231.521057 
M400.692902,219.149246 
	C400.617157,219.195007 400.541443,219.240768 400.692902,219.149246 
M170.310806,225.852539 
	C170.385574,225.807434 170.460358,225.762344 170.310806,225.852539 
M151.444656,228.488129 
	C151.444656,228.488129 151.520096,228.449615 151.444656,228.488129 
M150.442841,226.488495 
	C150.442841,226.488495 150.519363,226.449036 150.442841,226.488495 
M300.511841,221.440979 
	C300.511841,221.440979 300.552887,221.519684 300.511841,221.440979 
M77.511726,219.442276 
	C77.511726,219.442276 77.551491,219.519257 77.511726,219.442276 
z"/>
<path fill="#026EAB" opacity="1.000000" stroke="none" 
	d="
M239.966812,65.777695 
	C238.363464,66.628220 236.760117,67.478752 234.608490,68.650597 
	C228.906464,71.975677 223.711929,74.913498 218.639389,78.048706 
	C217.803070,78.565613 217.501648,79.947945 216.598724,80.956024 
	C215.612564,81.530586 214.980698,82.079445 214.348816,82.628311 
	C214.348816,82.628304 214.081009,82.723953 213.702240,82.802483 
	C212.901642,83.257050 212.479813,83.633095 211.892181,84.299599 
	C197.479065,97.187477 187.011292,112.645409 177.569519,128.981476 
	C171.477112,139.522491 166.553802,150.905182 157.286789,159.381775 
	C156.462280,160.135971 156.423370,161.749039 156.019592,162.963211 
	C156.019592,162.963211 156.024368,163.021027 155.788330,163.126160 
	C155.294846,163.421722 155.117493,163.669525 155.020264,163.974686 
	C155.020264,163.974686 155.015091,164.020355 154.676865,164.057068 
	C153.899994,164.736237 153.461349,165.378708 153.022705,166.021164 
	C153.022705,166.021164 153.000000,166.000000 152.646362,166.006042 
	C150.867294,167.341309 149.441864,168.670563 148.016434,169.999802 
	C148.016434,169.999802 148.004883,170.005936 147.644653,170.002563 
	C146.171402,170.394363 145.058365,170.789520 143.573990,171.208817 
	C131.494507,176.533401 119.577873,174.237854 107.805183,171.813766 
	C101.078850,170.428772 94.570503,167.985153 87.964005,166.018173 
	C87.964005,166.018173 88.004639,166.001709 87.956635,165.669083 
	C87.201668,164.695328 86.563454,163.950516 85.777084,163.429138 
	C78.021767,158.287170 70.223061,153.210556 62.476162,148.056030 
	C58.048409,145.109955 53.693657,142.054138 49.306038,139.047729 
	C46.221916,135.290146 43.137794,131.532562 40.020229,127.020569 
	C39.309467,121.134285 38.632149,116.002419 37.954826,110.870544 
	C39.579407,106.815994 41.203987,102.761452 43.345741,98.352676 
	C48.044720,93.938156 53.072723,90.428658 56.173512,85.664742 
	C59.359795,80.769470 63.863739,77.938972 68.030647,74.428177 
	C72.435951,70.716522 76.680344,66.813881 80.995026,62.994667 
	C80.995026,62.994667 81.000000,63.000000 81.409256,63.014977 
	C83.740952,62.387444 85.718231,61.873020 87.575317,61.077850 
	C92.678772,58.892635 97.785866,56.701328 102.780502,54.283138 
	C105.060104,53.179451 108.714668,53.129673 108.022240,48.975800 
	C108.463638,48.683258 108.905037,48.390720 109.874794,48.094513 
	C110.403152,48.090839 110.889023,48.099937 111.071472,48.294781 
	C111.838638,48.322803 112.423355,48.155979 113.391945,47.965073 
	C120.847389,45.033329 127.918953,42.125664 134.990524,39.217999 
	C137.706512,38.489605 140.422516,37.761211 143.914398,37.013374 
	C151.122070,38.575226 156.495255,35.599705 162.208893,32.977917 
	C162.637070,32.969830 162.808350,32.967709 163.411713,32.984097 
	C165.573135,32.963448 167.302460,32.924294 169.309875,32.863384 
	C170.052994,32.570705 170.518036,32.299786 171.385757,32.025688 
	C173.519073,31.679041 175.249741,31.335571 177.398621,30.998217 
	C179.211060,31.003872 180.605286,31.003416 182.276489,30.980541 
	C183.019684,30.698126 183.485901,30.438128 184.287079,30.157261 
	C185.068237,30.153887 185.514420,30.171381 186.306488,30.418518 
	C189.288223,30.766287 191.923065,30.921864 194.560196,30.993464 
	C198.199432,31.092272 201.996460,30.479109 205.451645,31.310595 
	C216.293732,33.919735 226.455353,38.433926 236.278687,43.678722 
	C243.153015,47.349014 248.952332,52.228710 252.613953,59.014076 
	C247.906570,60.858864 241.978775,59.761757 239.966812,65.777695 
z"/>
<path fill="#DDE1E5" opacity="1.000000" stroke="none" 
	d="
M261.975891,65.010071 
	C261.395691,64.519196 260.815521,64.028320 260.418884,63.170174 
	C261.039642,61.879169 261.476868,60.955433 262.127747,59.703266 
	C263.898834,59.214939 265.456329,59.055046 267.371735,58.975533 
	C268.653351,58.820301 269.577026,58.584690 270.771790,58.346703 
	C271.378662,58.214840 271.714508,58.085350 272.286346,58.012672 
	C272.522369,58.069492 272.964264,57.868351 273.413635,57.927742 
	C276.559845,57.849487 279.256653,57.711842 282.406952,57.698990 
	C287.253265,57.842358 291.646088,57.860935 296.456787,57.983219 
	C298.877747,58.117706 300.880890,58.148487 303.209229,58.425045 
	C308.295898,59.302204 313.125610,59.617683 317.805237,60.628239 
	C328.824890,63.007912 339.772980,65.719162 350.761475,68.290878 
	C350.772919,68.285477 350.781494,68.261658 350.986694,68.489357 
	C351.791840,68.796074 352.391815,68.875092 353.197388,69.113693 
	C353.576263,69.283539 353.749481,69.293808 354.168640,69.536926 
	C362.283356,72.779526 370.152130,75.789268 378.349152,78.951782 
	C381.813812,80.685181 384.950287,82.265816 388.211029,84.181671 
	C394.879669,87.693306 401.424042,90.869720 408.150085,94.321396 
	C409.506714,95.205093 410.681671,95.813530 411.825500,96.697609 
	C411.190033,97.671417 410.585693,98.369576 409.981354,99.067749 
	C409.540131,99.010384 409.098938,98.953018 408.200256,98.646088 
	C407.527466,98.162376 407.260864,98.037971 406.943024,98.023308 
	C406.943024,98.023308 406.478729,97.931015 406.175049,97.534836 
	C404.238342,96.787483 402.605347,96.436325 400.972351,96.085159 
	C399.569427,95.701797 398.166504,95.318436 396.312317,94.519287 
	C392.560577,93.088165 389.260162,92.072838 385.959717,91.057518 
	C385.959717,91.057518 385.994354,91.005318 385.912445,90.663162 
	C385.544098,89.922058 385.328583,89.262756 384.960754,89.162582 
	C377.458771,87.119431 369.952759,85.085228 362.398743,83.249954 
	C361.776886,83.098877 360.805664,84.385757 359.996765,85.004494 
	C359.558197,84.959869 359.119598,84.915253 358.237885,84.450218 
	C357.243225,83.708687 356.696075,83.115425 356.139557,83.106506 
	C344.288879,82.916771 332.436920,82.713287 320.585938,82.751801 
	C319.026764,82.756874 317.471771,84.064804 315.914856,84.769318 
	C315.914856,84.769318 315.542358,84.899391 315.542358,84.899391 
	C315.542358,84.899391 315.147980,84.887535 314.591644,84.614037 
	C309.785217,82.579590 306.338562,84.496399 302.967346,86.758461 
	C302.530670,86.811569 302.094025,86.864677 301.029053,86.665634 
	C299.591217,86.275200 298.763489,85.950661 297.974915,86.027588 
	C290.461334,86.760544 283.853302,85.174271 278.536224,79.321007 
	C277.631012,78.324493 275.522949,78.420647 273.970581,78.012009 
	C273.685547,77.850044 273.400513,77.688072 273.059723,76.903732 
	C271.660522,75.193253 270.317078,74.105148 268.973633,73.017044 
	C268.973633,73.017044 269.000000,72.999451 269.003143,72.637344 
	C267.669128,71.185326 266.331970,70.095413 264.994843,69.005493 
	C264.994843,69.005486 265.000000,69.000000 265.013733,68.638626 
	C264.010284,67.188194 262.993073,66.099136 261.975891,65.010071 
z"/>
<path fill="#0366A1" opacity="1.000000" stroke="none" 
	d="
M253.004272,58.998016 
	C248.952332,52.228710 243.153015,47.349014 236.278687,43.678722 
	C226.455353,38.433926 216.293732,33.919735 205.451645,31.310595 
	C201.996460,30.479109 198.199432,31.092272 194.560196,30.993464 
	C191.923065,30.921864 189.288223,30.766287 186.655746,30.220448 
	C188.756714,29.519833 190.854294,29.246927 193.425613,28.991808 
	C204.809647,28.883844 215.719955,28.758095 226.630249,28.632347 
	C226.630249,28.632347 226.790726,28.497065 227.074890,28.920021 
	C228.701843,29.885057 230.016922,30.803953 231.392120,30.905107 
	C237.946182,31.387186 244.516602,31.647020 251.399658,31.993679 
	C252.143616,32.009914 252.569122,32.018398 253.247070,32.283058 
	C254.692902,32.686493 255.886261,32.833752 257.394958,32.985741 
	C258.130188,32.981884 258.550140,32.973297 258.970062,32.964710 
	C260.037628,33.041267 261.105164,33.117825 262.676453,33.593639 
	C266.788391,34.997208 270.396576,36.001522 274.382080,37.007965 
	C275.514313,36.996235 276.269257,36.982380 277.021698,36.974503 
	C277.019226,36.980484 277.042023,36.953194 277.261108,37.241848 
	C281.596436,38.202400 285.712677,38.874298 289.828949,39.546196 
	C290.150696,39.335228 290.442871,39.370308 290.923981,40.187309 
	C295.987671,44.979626 302.113617,45.111511 308.011963,45.980644 
	C308.007812,45.998363 308.028931,45.965633 308.190216,46.283630 
	C313.517181,48.594112 317.799744,53.177265 324.413818,52.019115 
	C327.182983,53.064590 329.599030,54.047626 332.192993,55.338909 
	C333.893219,56.437607 335.423126,57.213848 336.936462,58.021202 
	C341.303925,60.351242 345.664673,62.693825 349.697998,65.162262 
	C344.122131,64.290367 338.887146,63.226501 333.628235,62.298046 
	C323.418396,60.495518 313.195160,58.769051 302.737854,57.001476 
	C302.498199,56.991879 302.018158,56.982018 301.698212,56.715485 
	C294.914490,56.294464 288.450714,56.139977 281.521088,55.984325 
	C271.704926,56.988113 262.354584,57.993065 253.004272,58.998016 
z"/>
<path fill="#0C5E91" opacity="1.000000" stroke="none" 
	d="
M357.227997,140.037735 
	C357.187134,138.616348 357.146301,137.194962 357.364868,135.111481 
	C358.747009,133.316711 359.869720,132.184067 361.243561,131.039154 
	C361.662292,131.027512 361.829895,131.028137 362.057800,131.343597 
	C363.443329,132.051025 364.768585,132.443649 366.093872,132.836273 
	C366.138458,131.890228 366.183044,130.944183 366.231995,129.905624 
	C364.439972,130.370972 363.234436,130.684036 361.990051,130.703003 
	C361.631134,129.934219 361.311066,129.459488 360.992859,128.649475 
	C360.990356,127.867165 360.985962,127.420120 360.981567,126.973076 
	C360.981567,126.973076 361.002045,126.999855 361.201599,126.882317 
	C361.669769,126.567162 361.865997,126.313522 361.989868,126.003860 
	C361.989868,126.003860 361.997040,125.997047 362.315704,125.997261 
	C363.401978,125.743584 364.169617,125.489685 364.937225,125.235794 
	C365.123932,125.210190 365.310638,125.184601 365.994141,125.381027 
	C367.319092,126.063507 368.147247,126.523964 368.800781,127.112076 
	C368.565186,127.513214 368.504272,127.786690 368.443359,128.060165 
	C368.639038,127.717194 368.834717,127.374214 369.309845,127.024994 
	C369.961517,127.026817 370.333740,127.034882 370.705963,127.042953 
	C371.721680,127.252800 372.864258,127.859917 373.725220,127.585037 
	C375.247192,127.099121 376.597717,126.076286 378.020020,125.278183 
	C378.659912,126.990234 379.324799,128.693634 379.922760,130.420212 
	C380.079742,130.873520 380.029358,131.398636 380.166473,132.904602 
	C385.353882,124.366943 388.221771,131.984070 393.045258,134.600189 
	C393.045258,131.107651 392.667755,128.353104 393.179535,125.775078 
	C393.514282,124.088737 395.137543,122.658180 396.183685,121.113052 
	C397.119843,122.563057 398.599670,123.914223 398.884766,125.482590 
	C399.590332,129.363525 400.049042,133.347305 400.003998,137.282837 
	C399.980652,139.320938 399.222626,142.245636 397.791473,143.114761 
	C396.426910,143.943420 393.589844,142.992554 391.705444,142.145096 
	C389.674011,141.231537 387.996979,139.529770 386.214142,138.208038 
	C384.092438,140.612503 382.451080,143.955414 379.841003,145.111847 
	C374.900604,147.300797 375.750946,141.347733 373.536011,139.491669 
	C366.667725,146.672012 364.797638,147.215576 359.058441,143.099396 
	C358.679047,142.361053 358.487885,142.174652 358.254242,142.031845 
	C358.254242,142.031845 358.086029,141.567612 357.955872,141.120514 
	C357.682922,140.408463 357.483673,140.196564 357.227997,140.037735 
z"/>
<path fill="#070306" opacity="1.000000" stroke="none" 
	d="
M293.014648,140.019913 
	C290.141449,146.005371 285.503906,146.998230 280.005066,142.805161 
	C274.994080,145.612503 273.320496,144.867096 272.269653,139.142426 
	C271.914185,137.205994 272.103363,135.173706 271.807343,133.221054 
	C271.521423,131.334946 270.930939,129.494980 270.079895,126.028435 
	C267.726227,131.137375 265.569824,134.780212 264.374847,138.715012 
	C263.265686,142.367279 261.246063,143.454025 257.415161,142.666870 
	C257.000000,141.888550 257.000000,141.443970 257.000000,140.999390 
	C257.666199,137.335907 258.642975,133.694305 258.903107,130.002213 
	C259.122253,126.891975 259.687286,124.980484 263.345947,124.863708 
	C264.671600,124.821381 266.254211,123.567802 267.194214,122.432098 
	C270.077759,118.948280 273.410950,119.193016 274.887146,123.478333 
	C275.729187,125.922859 275.620361,128.681335 276.104309,131.267654 
	C276.425201,132.982651 277.037598,134.643097 277.475586,136.174271 
	C279.136536,133.101105 280.073883,129.296753 282.497223,127.526161 
	C284.501801,126.061554 288.302246,126.683411 291.217468,127.064987 
	C292.082672,127.178230 292.644684,129.608322 293.656128,131.389008 
	C293.649323,134.540771 293.331970,137.280350 293.014648,140.019913 
z"/>
<path fill="#050305" opacity="1.000000" stroke="none" 
	d="
M180.628418,222.616302 
	C181.346542,219.151932 181.138077,215.561737 182.708008,213.110596 
	C185.106155,209.366318 191.318573,208.899841 196.470749,210.989609 
	C201.496140,213.027969 201.760254,217.819641 201.787720,221.887772 
	C201.850571,231.192535 194.236343,236.113464 185.778976,232.780884 
	C181.307129,231.018784 179.133377,227.947784 180.628418,222.616302 
z"/>
<path fill="#050305" opacity="1.000000" stroke="none" 
	d="
M96.143288,210.000763 
	C104.154755,210.115646 108.122681,214.240784 107.950531,221.829330 
	C107.813789,227.857224 103.787422,233.269592 99.151138,233.657776 
	C91.932808,234.262161 86.459488,230.779877 86.011703,225.298035 
	C85.180763,215.125488 87.906891,210.827591 96.143288,210.000763 
z"/>
<path fill="#080507" opacity="1.000000" stroke="none" 
	d="
M256.651031,140.844604 
	C257.000000,141.443970 257.000000,141.888550 257.000000,142.666565 
	C252.441925,142.381897 247.641159,142.449814 243.395706,140.947952 
	C239.351151,139.517151 235.886002,136.448456 232.114990,134.067566 
	C229.545792,137.095642 235.510910,143.211227 227.623535,143.424377 
	C227.429138,142.604553 227.207321,141.716873 227.008850,140.824005 
	C225.861618,135.663071 227.108704,129.724869 221.847687,125.858803 
	C221.225937,125.401909 221.472107,122.211754 221.965027,122.027794 
	C227.525208,119.952713 225.103546,115.015297 225.916077,111.354820 
	C226.442200,108.984619 225.636093,105.664391 229.478439,106.256851 
	C233.053818,106.808136 231.935013,109.943718 231.714737,112.339417 
	C231.628189,113.280586 231.404510,114.209137 232.161514,116.449272 
	C237.034943,113.792236 241.908386,111.135193 247.132797,108.286804 
	C247.754242,109.672699 248.378128,111.064041 249.289001,113.095390 
	C242.631042,116.739998 236.041275,120.347275 229.019348,124.191124 
	C228.757050,123.825882 228.145737,122.974640 227.467392,122.030060 
	C226.195297,124.671761 226.798538,127.064056 229.282730,128.400894 
	C236.003204,132.017410 242.748734,135.597305 249.602783,138.949524 
	C251.633774,139.942856 254.058014,140.132126 256.651031,140.844604 
z"/>
<path fill="#0D6198" opacity="1.000000" stroke="none" 
	d="
M351.920105,132.850922 
	C351.471832,133.164276 351.023560,133.477631 349.984985,133.965988 
	C348.934723,135.092300 348.474792,136.043640 347.670410,136.995026 
	C346.866882,136.989639 346.407776,136.984207 345.919037,136.634247 
	C344.892487,135.219330 343.895538,134.148956 342.898590,133.078583 
	C342.898590,133.078583 342.993530,133.016647 342.893646,132.674469 
	C338.844299,130.173569 336.154358,130.409485 335.019897,133.014099 
	C334.679718,134.090393 334.339508,135.166702 333.872314,136.919662 
	C332.952606,139.543808 332.159882,141.491318 330.905273,144.573639 
	C329.674500,141.155823 328.929657,139.087448 328.184845,137.019058 
	C328.184845,137.019058 328.067444,136.562576 327.931763,136.110504 
	C327.628021,135.383621 327.407654,135.160416 327.135010,134.988785 
	C327.135010,134.988785 327.028961,134.550735 326.991455,133.966888 
	C326.132812,132.101669 325.311707,130.820312 324.851990,130.102951 
	C326.138245,127.177711 328.062164,124.664360 328.240967,122.032463 
	C328.703369,115.225105 328.395996,108.365456 328.395996,101.526695 
	C328.970947,101.381477 329.545929,101.236259 330.120880,101.091049 
	C330.753937,102.632393 331.627502,104.123360 331.963440,105.726952 
	C332.461975,108.106644 332.579742,110.566093 332.859619,112.991592 
	C333.167603,117.503754 333.475586,122.015915 333.829559,127.201836 
	C336.695770,126.778137 338.981689,126.440224 341.856628,125.835129 
	C342.625000,123.379562 342.804321,121.191170 343.339417,119.015335 
	C345.111053,120.019920 346.526855,121.011940 348.218323,121.997757 
	C348.677032,121.975044 348.860077,121.958549 349.043152,121.942062 
	C349.043152,121.942062 349.000427,121.980286 349.013947,122.242920 
	C349.031097,122.687561 349.034760,122.869568 349.038391,123.051582 
	C349.272827,126.304169 350.778503,128.220169 354.852661,128.316833 
	C355.609985,129.712051 355.795105,130.827728 355.657593,131.957611 
	C354.196686,132.264877 353.058411,132.557907 351.920105,132.850922 
z"/>
<path fill="#090508" opacity="1.000000" stroke="none" 
	d="
M293.234070,139.835632 
	C293.331970,137.280350 293.649323,134.540771 293.974731,131.392044 
	C294.319946,129.873917 294.353333,128.476486 295.066956,127.725075 
	C296.082581,126.655724 297.597748,126.060860 298.899536,125.263306 
	C299.596802,126.436378 300.622955,127.535507 300.907623,128.801376 
	C301.258331,130.361023 300.991394,132.059570 300.991394,133.958694 
	C305.759796,128.826233 309.980072,129.917953 313.921112,135.785156 
	C314.281189,135.353226 314.641296,134.921280 315.001404,134.489349 
	C315.001404,131.452698 314.773834,128.391418 315.098938,125.389977 
	C315.257599,123.925514 316.446472,122.572655 317.169037,121.169281 
	C318.101471,122.552162 319.199463,123.857178 319.901001,125.348656 
	C320.289307,126.174240 320.014160,127.311905 320.079712,129.037888 
	C320.426636,130.483643 320.731934,131.200424 321.037231,131.917206 
	C320.169525,133.245880 319.301788,134.574554 318.809326,135.328644 
	C319.416046,137.816803 320.278564,139.849091 320.206177,141.847519 
	C320.179718,142.578354 317.209198,144.084045 316.830475,143.763031 
	C315.435608,142.580688 314.563934,140.781036 313.609039,139.380219 
	C310.303711,138.753876 306.898956,138.108704 304.922363,137.734146 
	C303.781799,140.535553 303.432587,143.965576 301.967499,144.537582 
	C296.237244,146.774857 296.239502,141.231857 294.606659,137.796494 
	C294.114929,138.587448 293.784180,139.119400 293.234070,139.835632 
z"/>
<path fill="#070306" opacity="1.000000" stroke="none" 
	d="
M244.998688,229.143646 
	C246.452789,228.717972 247.546616,228.396896 250.323212,227.581863 
	C248.819977,230.181473 248.216095,232.610291 247.100967,232.873535 
	C244.576080,233.469574 241.777496,233.183350 239.134689,232.874847 
	C237.975342,232.739532 236.994415,231.332336 235.812210,231.090546 
	C231.551682,230.219009 230.131943,228.181732 232.212418,224.070679 
	C232.677780,223.151108 232.992508,221.537064 232.510254,220.858063 
	C229.702042,216.904297 231.918228,213.446136 234.784897,212.106064 
	C238.209106,210.505356 242.738144,209.932755 246.442825,210.664795 
	C249.761841,211.320633 251.062439,214.998627 250.287918,218.769257 
	C250.067581,219.841904 250.380066,221.023987 250.500534,223.025604 
	C245.754898,223.025604 241.120636,223.025604 236.367996,223.025604 
	C237.410080,228.902527 239.547119,230.313141 244.998688,229.143646 
z"/>
<path fill="#070306" opacity="1.000000" stroke="none" 
	d="
M330.001221,213.001221 
	C326.970581,215.468246 326.105408,218.036530 331.219208,221.258072 
	C327.105194,223.589920 323.986176,225.357788 320.447113,227.363739 
	C322.354431,227.811844 324.199707,228.724762 325.946503,228.564529 
	C330.894714,228.110657 332.000549,230.970337 331.968140,234.918961 
	C331.933960,239.079834 329.452911,240.565994 325.568024,240.641937 
	C326.216736,231.654938 325.274567,230.838669 315.507568,232.898239 
	C317.869690,235.823715 319.874634,238.306824 321.950897,240.878281 
	C317.453522,241.118942 312.213196,236.509079 312.400238,232.503510 
	C312.669434,226.738617 313.143707,220.983307 313.597961,214.218781 
	C315.370453,216.051849 316.635620,217.719635 318.247711,218.922379 
	C319.739716,220.035538 321.603058,220.650970 323.302856,221.485596 
	C323.650208,219.355118 324.470520,217.155991 324.174774,215.118881 
	C323.985046,213.811981 322.150757,212.743851 320.855927,211.356888 
	C324.576996,208.462723 326.829163,211.259735 329.652069,212.924973 
	C330.000000,213.000000 330.001221,213.001221 330.001221,213.001221 
z"/>
<path fill="#050305" opacity="1.000000" stroke="none" 
	d="
M400.900482,232.029526 
	C394.589172,235.012604 387.672882,233.619659 385.068939,229.086639 
	C382.250793,224.180725 383.990662,214.520081 388.279205,211.261444 
	C392.790527,207.833511 402.951508,211.007233 404.660278,217.413193 
	C402.237610,216.673141 400.419128,215.922882 398.527191,215.590073 
	C396.265045,215.192123 393.742615,214.488647 391.686035,215.101868 
	C388.085754,216.175369 388.120911,219.573135 389.127045,222.410583 
	C389.945221,224.718079 391.326843,227.255371 393.232147,228.567368 
	C394.190918,229.227570 397.139252,227.750137 398.696625,226.583542 
	C400.341187,225.351624 401.401062,223.339264 402.928131,221.398712 
	C405.988678,225.829071 404.080048,228.922043 400.900482,232.029526 
z"/>
<path fill="#1F5D80" opacity="1.000000" stroke="none" 
	d="
M156.333603,162.841370 
	C156.423370,161.749039 156.462280,160.135971 157.286789,159.381775 
	C166.553802,150.905182 171.477112,139.522491 177.569519,128.981476 
	C187.011292,112.645409 197.479065,97.187477 212.222931,84.244812 
	C213.230652,83.475662 213.741791,83.051750 214.252945,82.627846 
	C214.203110,83.551933 214.525940,84.806931 214.045166,85.348351 
	C209.754578,90.180214 204.786179,94.500854 201.042389,99.708862 
	C193.083862,110.780014 185.709625,122.272850 178.155075,133.632187 
	C172.513199,142.115524 167.046234,150.716644 161.298874,159.126938 
	C160.247482,160.665497 158.222946,161.539032 156.333603,162.841370 
z"/>
<path fill="#070306" opacity="1.000000" stroke="none" 
	d="
M140.344666,233.453613 
	C138.804398,233.172852 137.474762,232.604477 136.390274,232.909027 
	C128.856064,235.024796 124.861160,232.506973 124.084763,224.561356 
	C123.713829,220.765259 123.843704,216.890320 124.127899,213.079529 
	C124.206436,212.026398 125.653481,211.075317 126.472610,210.077423 
	C127.309280,211.060287 128.735199,211.970032 128.867981,213.040237 
	C129.214188,215.830475 128.567032,218.778336 129.123657,221.498062 
	C129.642761,224.034561 131.201263,226.358337 132.302231,228.775757 
	C134.452209,227.277664 136.634460,225.822479 138.726883,224.247925 
	C139.185150,223.903091 139.323334,223.132950 140.117767,222.565598 
	C141.001724,226.205688 145.363541,229.515533 140.344666,233.453613 
z"/>
<path fill="#080507" opacity="1.000000" stroke="none" 
	d="
M212.916611,210.579681 
	C216.041031,210.540604 218.980362,210.104721 221.499634,210.938309 
	C225.071609,212.120224 225.138565,214.528366 222.079819,217.464874 
	C221.155090,216.888351 220.248688,216.176300 219.229279,215.712662 
	C214.305466,213.473297 211.338120,215.964706 210.884644,222.148987 
	C210.764343,223.789505 209.230377,225.326385 208.345505,226.910843 
	C207.562729,225.387497 206.252899,223.913742 206.103897,222.330750 
	C205.765244,218.733215 205.997162,215.081955 205.997162,211.968765 
	C208.388672,211.523422 210.466324,211.136520 212.916611,210.579681 
z"/>
<path fill="#080507" opacity="1.000000" stroke="none" 
	d="
M289.998779,221.999390 
	C287.997528,218.469162 288.241882,215.364105 291.051544,212.166718 
	C292.606506,210.397141 292.997131,207.635483 294.463165,205.748840 
	C296.239807,203.462448 298.406281,204.220978 300.424988,205.948044 
	C303.296722,208.404892 305.395264,217.937805 302.743958,222.195816 
	C300.292328,217.233963 298.205658,213.010666 296.316681,209.187592 
	C294.506012,213.033569 292.505829,217.282104 290.252808,221.765320 
	C290.000000,222.000000 289.998779,221.999390 289.998779,221.999390 
z"/>
<path fill="#31688C" opacity="1.000000" stroke="none" 
	d="
M88.116226,166.338318 
	C94.570503,167.985153 101.078850,170.428772 107.805183,171.813766 
	C119.577873,174.237854 131.494507,176.533401 143.579285,171.480347 
	C143.945328,172.094452 143.934723,172.461212 143.924133,172.827957 
	C131.595291,180.194244 118.924118,176.939026 106.454712,173.618286 
	C100.217171,171.957184 94.319725,169.019043 88.116226,166.338318 
z"/>
<path fill="#070306" opacity="1.000000" stroke="none" 
	d="
M255.119019,217.617477 
	C254.890427,212.585434 257.037598,210.102783 261.768768,210.012161 
	C264.915466,209.951920 268.212341,209.642731 268.499054,214.724274 
	C265.720001,214.724274 263.118195,214.724274 260.516357,214.724274 
	C260.294769,215.254807 260.073181,215.785339 259.851593,216.315872 
	C261.683228,217.626480 263.377380,219.219742 265.374054,220.191193 
	C270.115417,222.498093 270.408234,223.099854 267.862091,228.797195 
	C263.591492,225.163971 259.385925,221.586075 255.119019,217.617477 
z"/>
<path fill="#080507" opacity="1.000000" stroke="none" 
	d="
M72.834305,214.230728 
	C76.387520,215.443695 76.495659,217.641693 75.475861,220.316376 
	C67.835739,218.851898 64.104721,214.178925 65.031517,207.314911 
	C65.613762,203.002731 69.103706,201.273468 75.646156,202.026932 
	C78.756706,202.385132 80.714722,203.565704 79.752502,206.688614 
	C76.176414,207.023560 72.832314,206.965561 69.741447,207.821747 
	C68.615257,208.133713 68.091972,210.622284 67.252678,212.194504 
	C69.450111,212.953827 70.983765,213.483780 72.834305,214.230728 
z"/>
<path fill="#18608A" opacity="1.000000" stroke="none" 
	d="
M80.635681,63.004238 
	C76.680344,66.813881 72.435951,70.716522 68.030647,74.428177 
	C63.863739,77.938972 59.359795,80.769470 56.173512,85.664742 
	C53.072723,90.428658 48.044720,93.938156 43.514980,98.034012 
	C45.396301,94.568703 47.178165,90.658546 49.937321,87.642410 
	C58.803242,77.950714 68.944016,69.721527 80.635681,63.004238 
z"/>
<path fill="#236590" opacity="1.000000" stroke="none" 
	d="
M378.020935,78.799019 
	C370.152130,75.789268 362.283356,72.779526 354.183197,69.216705 
	C354.438263,68.013824 355.032349,67.416451 355.381470,66.699760 
	C355.744415,65.954720 355.870575,65.094345 356.100281,64.284409 
	C361.627533,67.045616 367.150330,69.815758 372.684418,72.563179 
	C374.637787,73.532944 376.618744,74.447220 378.671814,75.955193 
	C378.511322,77.282043 378.266144,78.040527 378.020935,78.799019 
z"/>
<path fill="#31688C" opacity="1.000000" stroke="none" 
	d="
M49.369789,139.367050 
	C53.693657,142.054138 58.048409,145.109955 62.476162,148.056030 
	C70.223061,153.210556 78.021767,158.287170 85.777084,163.429138 
	C86.563454,163.950516 87.201668,164.695328 87.947128,165.688873 
	C80.088333,161.630905 72.036331,157.470520 64.352318,152.715469 
	C59.814091,149.907120 55.815842,146.209045 51.672588,142.792480 
	C50.720131,142.007050 50.169239,140.734650 49.369789,139.367050 
z"/>
<path fill="#11517F" opacity="1.000000" stroke="none" 
	d="
M321.366302,132.043427 
	C320.731934,131.200424 320.426636,130.483643 320.100433,129.473541 
	C321.884369,128.140427 323.689209,127.100662 326.064850,125.732071 
	C326.064850,118.442032 325.901398,110.618744 326.199066,102.813034 
	C326.260590,101.199730 327.758850,98.641647 329.080658,98.276291 
	C332.187866,97.417412 332.873047,100.140259 332.977509,102.580482 
	C333.112762,105.739777 333.000214,108.909691 332.926971,112.533310 
	C332.579742,110.566093 332.461975,108.106644 331.963440,105.726952 
	C331.627502,104.123360 330.753937,102.632393 330.120880,101.091049 
	C329.545929,101.236259 328.970947,101.381477 328.395996,101.526695 
	C328.395996,108.365456 328.703369,115.225105 328.240967,122.032463 
	C328.062164,124.664360 326.138245,127.177711 324.851990,130.102951 
	C325.311707,130.820312 326.132812,132.101669 326.947021,133.745956 
	C325.191864,133.462463 323.443604,132.816071 321.366302,132.043427 
z"/>
<path fill="#080507" opacity="1.000000" stroke="none" 
	d="
M65.999748,228.000000 
	C74.652596,232.085571 77.011391,224.035233 81.797493,219.029495 
	C83.041489,223.771744 83.844597,226.648315 79.376656,229.960587 
	C76.315575,232.229843 74.009384,234.447235 70.090179,233.807632 
	C67.317757,233.355194 65.434258,232.066864 66.000969,228.411636 
	C66.000000,228.000000 65.999748,228.000000 65.999748,228.000000 
z"/>
<path fill="#0C5E91" opacity="1.000000" stroke="none" 
	d="
M252.613953,59.014072 
	C262.354584,57.993065 271.704926,56.988113 281.515442,56.249393 
	C281.968292,56.868481 281.960907,57.221336 281.953491,57.574196 
	C279.256653,57.711842 276.559845,57.849487 273.325867,57.781868 
	C272.542603,57.703018 272.296478,57.829437 272.050323,57.955856 
	C271.714508,58.085350 271.378662,58.214840 270.405212,58.239616 
	C268.849670,58.388317 267.931732,58.641735 267.013794,58.895153 
	C265.456329,59.055046 263.898834,59.214939 261.794250,59.696529 
	C260.215057,60.406731 259.182983,60.795238 258.150940,61.183746 
	C254.630936,62.084599 251.103973,62.959301 247.593430,63.895634 
	C245.305511,64.505875 243.041489,65.205688 240.366791,65.821533 
	C241.978775,59.761757 247.906570,60.858864 252.613953,59.014072 
z"/>
<path fill="#090508" opacity="1.000000" stroke="none" 
	d="
M157.991119,210.001572 
	C160.545746,210.904083 162.805283,211.605545 164.718521,212.842575 
	C165.225845,213.170609 164.668274,215.145599 164.536163,217.492294 
	C162.382797,215.555130 161.221375,214.510315 160.378006,213.751617 
	C153.009415,213.692017 153.613113,220.645432 151.034073,225.127426 
	C146.110977,221.222305 149.956497,217.472702 150.244247,214.299164 
	C150.513840,211.325867 153.856201,209.342041 157.991119,210.001572 
z"/>
<path fill="#818A99" opacity="1.000000" stroke="none" 
	d="
M411.856628,96.421951 
	C410.681671,95.813530 409.506714,95.205093 408.386902,94.091049 
	C408.633698,92.961494 408.825378,92.337555 409.017059,91.713615 
	C418.384827,97.762634 427.752594,103.811646 437.120392,109.860664 
	C436.857574,110.359230 436.594788,110.857796 436.332001,111.356361 
	C430.154846,112.777863 427.049072,106.609245 421.934753,104.123734 
	C418.400452,101.135124 415.128540,98.778534 411.856628,96.421951 
z"/>
<path fill="#090508" opacity="1.000000" stroke="none" 
	d="
M364.529633,228.635025 
	C364.710541,225.349319 365.178925,222.232605 365.647339,219.115875 
	C366.122345,218.954849 366.597321,218.793823 367.072327,218.632797 
	C368.408447,224.980743 368.923950,232.493607 378.324799,227.069992 
	C379.345886,230.348602 378.731689,231.855988 375.477814,232.694000 
	C370.821594,233.893127 367.300537,233.045639 364.529633,228.635025 
z"/>
<path fill="#C9C8CC" opacity="1.000000" stroke="none" 
	d="
M316.310425,84.862144 
	C317.471771,84.064804 319.026764,82.756874 320.585938,82.751801 
	C332.436920,82.713287 344.288879,82.916771 356.139557,83.106506 
	C356.696075,83.115425 357.243225,83.708687 357.915314,84.376472 
	C353.472595,84.473961 348.905304,83.961334 344.346893,84.030968 
	C335.130707,84.171753 325.919342,84.628517 316.310425,84.862144 
z"/>
<path fill="#08649C" opacity="1.000000" stroke="none" 
	d="
M347.942657,122.003967 
	C346.526855,121.011940 345.111053,120.019920 343.341370,118.575958 
	C343.497131,112.228912 344.006775,106.333786 344.516418,100.438667 
	C345.064789,100.373840 345.613159,100.309006 346.161530,100.244171 
	C346.768188,102.434723 347.627869,104.591644 347.924438,106.823410 
	C348.415558,110.519379 348.544067,114.263542 348.825378,117.987396 
	C348.838440,118.743240 348.851532,119.499077 348.639404,120.764565 
	C348.216125,121.491035 348.058960,121.734291 347.942657,122.003967 
z"/>
<path fill="#11517F" opacity="1.000000" stroke="none" 
	d="
M348.904480,117.526123 
	C348.544067,114.263542 348.415558,110.519379 347.924438,106.823410 
	C347.627869,104.591644 346.768188,102.434723 346.161530,100.244171 
	C345.613159,100.309006 345.064789,100.373840 344.516418,100.438667 
	C344.006775,106.333786 343.497131,112.228912 342.985535,118.563408 
	C342.804321,121.191170 342.625000,123.379562 342.176086,125.744278 
	C341.959045,117.775200 341.876282,109.624626 342.187408,101.489113 
	C342.244202,100.003479 343.906342,98.579224 344.827423,97.126633 
	C346.217224,98.619705 348.641785,100.008232 348.805176,101.625214 
	C349.320465,106.725708 348.987976,111.911858 348.904480,117.526123 
z"/>
<path fill="#080507" opacity="1.000000" stroke="none" 
	d="
M450.007904,219.992615 
	C452.839935,220.702667 455.671967,221.412704 458.503998,222.122757 
	C458.579376,222.650406 458.654724,223.178070 458.730103,223.705734 
	C457.384216,224.370163 456.038361,225.034607 454.541199,225.773727 
	C456.040588,227.680847 456.813324,228.663727 457.848846,229.980835 
	C456.147430,231.262482 454.634827,232.828690 452.790161,233.636063 
	C451.630066,234.143799 449.808563,233.834991 448.620850,233.230362 
	C448.169128,233.000412 448.536469,229.856598 448.740082,229.832809 
	C456.036804,228.979553 454.093842,226.070267 450.498505,222.619217 
	C450.102112,222.238724 450.162567,221.382217 450.005615,220.373138 
	C450.000092,219.999817 450.007904,219.992615 450.007904,219.992615 
z"/>
<path fill="#11517F" opacity="1.000000" stroke="none" 
	d="
M355.764282,64.102478 
	C355.870575,65.094345 355.744415,65.954720 355.381470,66.699760 
	C355.032349,67.416451 354.438263,68.013824 353.937286,68.983856 
	C353.749481,69.293808 353.576263,69.283539 352.989746,68.880020 
	C351.978119,68.411728 351.379791,68.336693 350.781494,68.261658 
	C350.781494,68.261658 350.772919,68.285477 350.830048,67.934937 
	C350.600800,66.733421 350.314453,65.882454 350.028076,65.031479 
	C345.664673,62.693825 341.303925,60.351242 336.936462,58.021202 
	C335.423126,57.213848 333.893219,56.437607 332.399445,55.097672 
	C333.028076,54.358639 333.628174,54.169094 334.228241,53.979546 
	C334.228241,53.979546 334.594055,53.978226 334.927673,54.252056 
	C335.587738,54.676682 335.914246,54.827477 336.240723,54.978275 
	C336.240723,54.978275 336.620361,54.992237 336.994568,55.276825 
	C337.934845,55.693962 338.500977,55.826511 339.067078,55.959061 
	C339.067078,55.959064 339.018311,55.999588 339.139343,56.202652 
	C339.555420,56.596615 339.850464,56.787521 340.145477,56.978416 
	C345.239746,59.292461 350.334045,61.606510 355.764282,64.102478 
z"/>
<path fill="#18608A" opacity="1.000000" stroke="none" 
	d="
M107.639198,48.992302 
	C108.714668,53.129673 105.060104,53.179451 102.780502,54.283138 
	C97.785866,56.701328 92.678772,58.892635 87.575317,61.077850 
	C85.718231,61.873020 83.740952,62.387444 81.407074,63.012314 
	C89.749146,58.332718 98.502647,53.670761 107.639198,48.992302 
z"/>
<path fill="#090508" opacity="1.000000" stroke="none" 
	d="
M173.928925,223.186249 
	C169.821793,220.750854 169.412613,217.141953 170.094482,213.298294 
	C170.299866,212.140610 171.504654,211.160233 172.251617,210.098633 
	C173.164459,211.161392 174.820953,212.193115 174.866837,213.292099 
	C175.123215,219.433090 174.990143,225.590317 174.990143,232.391220 
	C170.270920,229.444824 175.546173,226.174271 173.928925,223.186249 
z"/>
<path fill="#3F6378" opacity="1.000000" stroke="none" 
	d="
M408.842651,91.424072 
	C408.825378,92.337555 408.633698,92.961494 408.205200,93.815781 
	C401.424042,90.869720 394.879669,87.693306 388.341553,83.974396 
	C388.881500,83.060455 389.415192,82.689026 389.948883,82.317581 
	C396.188660,85.256561 402.428436,88.195541 408.842651,91.424072 
z"/>
<path fill="#11517F" opacity="1.000000" stroke="none" 
	d="
M348.014862,136.994980 
	C348.474792,136.043640 348.934723,135.092300 349.738861,134.089050 
	C350.558350,139.048447 351.267883,144.056320 351.341766,149.073547 
	C351.359894,150.305176 349.472595,151.863571 348.104156,152.651459 
	C347.638489,152.919556 345.573090,151.499695 345.127747,150.467529 
	C344.382568,148.740448 344.351501,146.705231 344.391602,144.467651 
	C345.707794,145.991074 346.652283,147.846542 347.596771,149.702011 
	C348.140686,149.619843 348.684601,149.537674 349.228485,149.455505 
	C348.823944,145.302002 348.419403,141.148483 348.014862,136.994980 
z"/>
<path fill="#C9C8CC" opacity="1.000000" stroke="none" 
	d="
M360.167877,85.377136 
	C360.805664,84.385757 361.776886,83.098877 362.398743,83.249954 
	C369.952759,85.085228 377.458771,87.119431 384.960754,89.162582 
	C385.328583,89.262756 385.544098,89.922058 385.888184,90.683029 
	C377.410187,89.279961 368.874603,87.514870 360.167877,85.377136 
z"/>
<path fill="#C9C8CC" opacity="1.000000" stroke="none" 
	d="
M274.077850,78.338509 
	C275.522949,78.420647 277.631012,78.324493 278.536224,79.321007 
	C283.853302,85.174271 290.461334,86.760544 297.974915,86.027588 
	C298.763489,85.950661 299.591217,86.275200 300.699219,86.699928 
	C294.734406,89.266075 288.650696,88.189758 283.006561,85.287735 
	C279.783173,83.630379 277.107452,80.907898 274.077850,78.338509 
z"/>
<path fill="#090508" opacity="1.000000" stroke="none" 
	d="
M377.009766,211.007339 
	C376.072357,212.065521 375.295471,213.366165 374.156616,214.120026 
	C372.757172,215.046387 371.107941,215.770615 369.469025,216.108383 
	C367.976349,216.416016 366.353088,216.090073 364.787384,216.043381 
	C365.253967,214.524811 365.491333,211.833572 366.226715,211.689819 
	C369.486176,211.052582 372.888580,211.146637 376.619629,210.988052 
	C377.000000,211.000000 377.009766,211.007339 377.009766,211.007339 
z"/>
<path fill="#2D6685" opacity="1.000000" stroke="none" 
	d="
M192.951874,28.974024 
	C190.854294,29.246927 188.756714,29.519833 186.309875,29.990807 
	C185.514420,30.171381 185.068237,30.153887 184.005417,30.142426 
	C182.925690,30.433292 182.462601,30.718126 181.999496,31.002958 
	C180.605286,31.003416 179.211060,31.003872 176.996719,30.990284 
	C174.445419,31.327116 172.714264,31.677994 170.983093,32.028870 
	C170.518036,32.299786 170.052994,32.570705 169.032776,32.630493 
	C166.644943,32.601437 164.812271,32.783512 162.979614,32.965591 
	C162.808350,32.967709 162.637070,32.969830 161.799561,32.978371 
	C159.763168,32.988018 158.392990,32.991241 157.022797,32.994469 
	C163.475159,31.659708 169.886078,30.045975 176.393082,29.078905 
	C181.551926,28.312201 186.828537,28.337965 192.526733,28.004984 
	C193.000626,27.998121 193.029419,28.030664 193.008820,28.266405 
	C192.988205,28.502146 192.951874,28.974026 192.951874,28.974024 
z"/>
<path fill="#2D6685" opacity="1.000000" stroke="none" 
	d="
M110.889023,48.099937 
	C110.889023,48.099937 110.403152,48.090839 110.161201,48.062965 
	C118.009476,45.050510 126.099701,42.065933 134.590225,39.149673 
	C127.918953,42.125664 120.847389,45.033329 113.038467,47.967312 
	C111.830421,48.029068 111.359718,48.064503 110.889023,48.099937 
z"/>
<path fill="#080507" opacity="1.000000" stroke="none" 
	d="
M265.261627,230.582825 
	C265.824890,231.313110 266.103363,231.841995 266.381805,232.370895 
	C263.454681,232.666855 260.434113,233.500977 257.642487,233.016388 
	C256.375671,232.796478 255.562637,229.962418 254.049744,227.515076 
	C258.739105,228.745178 261.857971,229.563309 265.261627,230.582825 
z"/>
<path fill="#0C5886" opacity="1.000000" stroke="none" 
	d="
M216.953033,80.930328 
	C217.501648,79.947945 217.803070,78.565613 218.639389,78.048706 
	C223.711929,74.913498 228.906464,71.975677 234.445526,68.956467 
	C232.865524,70.501549 230.930206,72.101799 228.928406,73.614067 
	C225.200058,76.430687 221.433014,79.196098 217.327805,81.739731 
	C216.966705,81.307869 216.959869,81.119102 216.953033,80.930328 
z"/>
<path fill="#070306" opacity="1.000000" stroke="none" 
	d="
M448.732544,210.069580 
	C450.948029,210.059143 452.923828,209.657990 454.532776,210.251465 
	C455.978058,210.784546 457.020325,212.410339 458.240356,213.554123 
	C457.899567,213.853592 457.558746,214.153061 457.217926,214.452545 
	C453.450287,214.107025 449.682617,213.761505 444.465546,213.283081 
	C446.385345,211.708954 447.359253,210.910400 448.732544,210.069580 
z"/>
<path fill="#08649C" opacity="1.000000" stroke="none" 
	d="
M347.670410,136.995026 
	C348.419403,141.148483 348.823944,145.302002 349.228485,149.455505 
	C348.684601,149.537674 348.140686,149.619843 347.596771,149.702011 
	C346.652283,147.846542 345.707794,145.991074 344.458557,144.055481 
	C344.153809,143.975372 344.083160,143.483810 344.335632,142.955139 
	C345.041626,140.610565 345.495148,138.794678 345.948669,136.978790 
	C346.407776,136.984207 346.866882,136.989639 347.670410,136.995026 
z"/>
<path fill="#437090" opacity="1.000000" stroke="none" 
	d="
M295.044556,40.178238 
	C302.987640,42.582764 310.931641,44.984383 318.872650,47.395718 
	C319.809875,47.680313 320.730927,48.018257 321.826721,48.661240 
	C321.993988,48.991001 321.943665,49.052860 321.534851,49.043198 
	C316.760315,48.010902 312.394623,46.988270 308.028931,45.965637 
	C308.028931,45.965633 308.007812,45.998363 307.787354,45.705128 
	C303.392792,43.667343 299.218658,41.922791 295.044556,40.178238 
z"/>
<path fill="#1F5D80" opacity="1.000000" stroke="none" 
	d="
M389.656799,82.108810 
	C389.415192,82.689026 388.881500,83.060455 388.217285,83.639175 
	C384.950287,82.265816 381.813812,80.685181 378.349152,78.951782 
	C378.266144,78.040527 378.511322,77.282043 378.886536,76.249939 
	C382.465942,77.950897 385.915344,79.925461 389.656799,82.108810 
z"/>
<path fill="#070306" opacity="1.000000" stroke="none" 
	d="
M157.252197,229.134186 
	C159.159348,228.605469 160.715729,228.160141 163.887512,227.252579 
	C162.890610,229.721375 162.680298,231.896393 161.543015,232.625488 
	C160.223785,233.471237 158.090622,233.047394 156.310776,233.174652 
	C156.507660,231.855621 156.704544,230.536591 157.252197,229.134186 
z"/>
<path fill="#0C5886" opacity="1.000000" stroke="none" 
	d="
M156.616638,32.999851 
	C158.392990,32.991241 159.763168,32.988018 161.542694,32.984341 
	C156.495255,35.599705 151.122070,38.575226 144.296326,36.971771 
	C148.005066,35.634819 152.107773,34.320026 156.616638,32.999851 
z"/>
<path fill="#0C5886" opacity="1.000000" stroke="none" 
	d="
M251.081192,31.985924 
	C244.516602,31.647020 237.946182,31.387186 231.392120,30.905107 
	C230.016922,30.803953 228.701843,29.885057 227.168289,28.967903 
	C227.339203,28.574951 227.700912,28.557074 228.679428,28.745876 
	C232.210037,28.965553 235.123840,28.978548 238.037628,28.991543 
	C238.037628,28.991541 237.991211,29.009470 238.285797,29.255287 
	C241.076691,29.652132 243.572998,29.803162 246.069290,29.954193 
	C246.069290,29.954191 246.011871,29.989676 246.235764,30.227474 
	C248.000168,30.972157 249.540680,31.479038 251.081192,31.985924 
z"/>
<path fill="#2D6685" opacity="1.000000" stroke="none" 
	d="
M192.987000,27.981121 
	C194.175964,27.643847 195.382614,27.032309 196.580460,27.049149 
	C206.612640,27.190191 216.643219,27.446634 226.141144,27.915266 
	C214.748489,28.118376 203.888947,28.074520 193.029419,28.030664 
	C193.029419,28.030664 193.000626,27.998121 192.987000,27.981121 
z"/>
<path fill="#C9C8CC" opacity="1.000000" stroke="none" 
	d="
M411.825500,96.697601 
	C415.128540,98.778534 418.400452,101.135124 421.828064,103.793251 
	C418.084259,102.635826 414.184723,101.176865 410.133301,99.392822 
	C410.585693,98.369576 411.190033,97.671417 411.825500,96.697601 
z"/>
<path fill="#11517F" opacity="1.000000" stroke="none" 
	d="
M193.008820,28.266405 
	C203.888947,28.074520 214.748489,28.118376 226.125778,28.292709 
	C226.643539,28.423185 226.607895,28.528917 226.619080,28.580631 
	C215.719955,28.758095 204.809647,28.883844 193.425613,28.991810 
	C192.951874,28.974026 192.988205,28.502146 193.008820,28.266405 
z"/>
<path fill="#0C5E91" opacity="1.000000" stroke="none" 
	d="
M294.641724,40.124321 
	C299.218658,41.922791 303.392792,43.667343 307.791504,45.687408 
	C302.113617,45.111511 295.987671,44.979626 291.062714,40.380692 
	C292.068237,40.048931 293.153564,40.059666 294.641724,40.124321 
z"/>
<path fill="#31688C" opacity="1.000000" stroke="none" 
	d="
M37.627365,111.090149 
	C38.632149,116.002419 39.309467,121.134285 39.973129,126.669838 
	C35.927872,124.194092 34.760300,117.273697 37.627365,111.090149 
z"/>
<path fill="#11517F" opacity="1.000000" stroke="none" 
	d="
M328.111267,137.454147 
	C328.929657,139.087448 329.674500,141.155823 330.905273,144.573639 
	C332.159882,141.491318 332.952606,139.543808 333.900085,137.267380 
	C336.046417,142.824036 334.609161,144.894394 328.037720,144.525558 
	C328.037720,142.346542 328.037720,140.117889 328.111267,137.454147 
z"/>
<path fill="#090508" opacity="1.000000" stroke="none" 
	d="
M411.002441,208.152496 
	C411.002441,213.572128 411.002441,218.517227 411.002441,223.462326 
	C410.790527,223.466705 410.578613,223.471085 410.366699,223.475449 
	C410.366699,216.160614 410.366699,208.845764 410.366699,201.530914 
	C410.578613,201.508347 410.790527,201.485764 411.002441,201.463181 
	C411.002441,203.534775 411.002441,205.606354 411.002441,208.152496 
z"/>
<path fill="#C9C8CC" opacity="1.000000" stroke="none" 
	d="
M303.388031,86.848885 
	C306.338562,84.496399 309.785217,82.579590 314.406067,84.546448 
	C311.120819,85.481339 307.464752,86.210327 303.388031,86.848885 
z"/>
<path fill="#0C5886" opacity="1.000000" stroke="none" 
	d="
M274.004791,37.005836 
	C270.396576,36.001522 266.788391,34.997208 263.069855,33.673225 
	C265.081604,33.605804 267.203674,33.858055 269.943726,34.392216 
	C271.710632,35.115879 272.859589,35.557636 274.007263,36.250999 
	C274.005615,36.670353 274.005219,36.838093 274.004791,37.005836 
z"/>
<path fill="#31688C" opacity="1.000000" stroke="none" 
	d="
M333.999237,53.689281 
	C333.628174,54.169094 333.028076,54.358639 332.221558,54.789425 
	C329.599030,54.047626 327.182983,53.064590 324.390991,51.705887 
	C323.984406,50.912140 323.953705,50.494057 323.960968,50.036697 
	C323.998901,49.997421 324.072998,49.917210 324.072998,49.917210 
	C327.305420,51.077812 330.537811,52.238415 333.999237,53.689281 
z"/>
<path fill="#070306" opacity="1.000000" stroke="none" 
	d="
M449.996246,220.002655 
	C449.499908,219.978409 448.923248,220.107880 448.529907,219.896362 
	C447.058502,219.105209 445.647156,218.202408 444.213257,217.341461 
	C444.691498,216.771530 445.556519,215.680099 445.592346,215.706665 
	C447.180847,216.884796 448.696289,218.161407 450.114166,219.709442 
	C450.007904,219.992615 450.000092,219.999817 449.996246,220.002655 
z"/>
<path fill="#1B6491" opacity="1.000000" stroke="none" 
	d="
M355.980225,131.943390 
	C355.795105,130.827728 355.609985,129.712051 355.238342,128.380356 
	C356.796417,127.873650 358.541046,127.582962 360.633606,127.132675 
	C360.985962,127.420120 360.990356,127.867165 360.709473,128.702438 
	C360.124176,129.412491 359.824097,129.734329 359.523987,130.056152 
	C360.013489,130.387909 360.502960,130.719666 360.992432,131.051422 
	C359.869720,132.184067 358.747009,133.316711 357.422211,134.687317 
	C356.998749,134.327362 356.777374,133.729462 356.279938,132.746994 
	C356.003876,132.362427 355.980225,131.943390 355.980225,131.943390 
z"/>
<path fill="#0C5E91" opacity="1.000000" stroke="none" 
	d="
M289.820740,39.431976 
	C285.712677,38.874298 281.596436,38.202400 277.689301,37.240822 
	C279.621124,36.961025 281.343842,36.970909 283.066528,36.980793 
	C283.066528,36.980793 283.000336,37.002499 283.241547,37.250656 
	C285.535461,38.054581 287.588135,38.610348 289.640839,39.166122 
	C289.640839,39.166122 289.812500,39.317753 289.820740,39.431976 
z"/>
<path fill="#C9C8CC" opacity="1.000000" stroke="none" 
	d="
M386.109589,91.395699 
	C389.260162,92.072838 392.560577,93.088165 395.946594,94.439590 
	C392.774628,93.761757 389.517029,92.747818 386.109589,91.395699 
z"/>
<path fill="#437090" opacity="1.000000" stroke="none" 
	d="
M282.853455,36.655315 
	C281.343842,36.970909 279.621124,36.961025 277.470215,36.952168 
	C277.042023,36.953194 277.019226,36.980484 276.800598,36.728008 
	C275.724152,36.316818 274.866364,36.158104 274.008545,35.999390 
	C272.859589,35.557636 271.710632,35.115879 270.350952,34.452759 
	C274.306946,34.930870 278.473633,35.630356 282.853455,36.655315 
z"/>
<path fill="#2D6685" opacity="1.000000" stroke="none" 
	d="
M251.399658,31.993675 
	C249.540680,31.479038 248.000168,30.972157 246.229019,30.194399 
	C250.301743,30.671751 254.605118,31.419977 258.939270,32.566456 
	C258.550140,32.973297 258.130188,32.981884 257.134705,32.732414 
	C255.370972,32.325199 254.182785,32.176041 252.994614,32.026882 
	C252.569122,32.018398 252.143616,32.009914 251.399658,31.993675 
z"/>
<path fill="#11517F" opacity="1.000000" stroke="none" 
	d="
M335.459045,132.988434 
	C336.154358,130.409485 338.844299,130.173569 342.856934,132.717651 
	C340.579437,133.056274 338.238831,133.009521 335.459045,132.988434 
z"/>
<path fill="#11517F" opacity="1.000000" stroke="none" 
	d="
M345.919037,136.634247 
	C345.495148,138.794678 345.041626,140.610565 344.366699,142.708771 
	C343.737793,139.965637 343.330383,136.940186 342.910767,133.496643 
	C343.895538,134.148956 344.892487,135.219330 345.919037,136.634247 
z"/>
<path fill="#C9C8CC" opacity="1.000000" stroke="none" 
	d="
M268.995361,73.367935 
	C270.317078,74.105148 271.660522,75.193253 272.995239,76.657104 
	C271.663361,75.928177 270.340240,74.823502 268.995361,73.367935 
z"/>
<path fill="#1F5D80" opacity="1.000000" stroke="none" 
	d="
M148.354187,169.981354 
	C149.441864,168.670563 150.867294,167.341309 152.656708,166.017639 
	C151.577789,167.336426 150.134872,168.649658 148.354187,169.981354 
z"/>
<path fill="#2D6685" opacity="1.000000" stroke="none" 
	d="
M237.802612,28.652699 
	C235.123840,28.978548 232.210037,28.965553 228.874344,28.944365 
	C231.490829,28.728731 234.529221,28.521294 237.802612,28.652699 
z"/>
<path fill="#C9C8CC" opacity="1.000000" stroke="none" 
	d="
M401.119049,96.416336 
	C402.605347,96.436325 404.238342,96.787483 405.951050,97.458344 
	C404.442413,97.434525 402.854095,97.091019 401.119049,96.416336 
z"/>
<path fill="#C9C8CC" opacity="1.000000" stroke="none" 
	d="
M258.244690,61.445797 
	C259.182983,60.795238 260.215057,60.406731 261.580597,60.024960 
	C261.476868,60.955433 261.039642,61.879169 260.343811,62.888260 
	C259.502960,62.551693 258.920685,62.129772 258.244690,61.445797 
z"/>
<path fill="#C9C8CC" opacity="1.000000" stroke="none" 
	d="
M265.080383,69.317749 
	C266.331970,70.095413 267.669128,71.185326 268.994324,72.650467 
	C267.710205,71.893799 266.438049,70.761902 265.080383,69.317749 
z"/>
<path fill="#437090" opacity="1.000000" stroke="none" 
	d="
M289.686096,38.851395 
	C287.588135,38.610348 285.535461,38.054581 283.231293,37.217369 
	C285.230347,37.469505 287.480865,38.003090 289.686096,38.851395 
z"/>
<path fill="#2D6685" opacity="1.000000" stroke="none" 
	d="
M245.831009,29.616356 
	C243.572998,29.803162 241.076691,29.652132 238.283173,29.230543 
	C240.521545,29.066162 243.057144,29.172340 245.831009,29.616356 
z"/>
<path fill="#1F5D80" opacity="1.000000" stroke="none" 
	d="
M144.258972,172.871887 
	C143.934723,172.461212 143.945328,172.094452 143.950638,171.456177 
	C145.058365,170.789520 146.171402,170.394363 147.641083,170.008041 
	C146.863098,170.983185 145.728455,171.949509 144.258972,172.871887 
z"/>
<path fill="#C9C8CC" opacity="1.000000" stroke="none" 
	d="
M262.007446,65.343933 
	C262.993073,66.099136 264.010284,67.188194 265.011017,68.641197 
	C264.009369,67.896019 263.024170,66.786903 262.007446,65.343933 
z"/>
<path fill="#070306" opacity="1.000000" stroke="none" 
	d="
M329.999390,212.999390 
	C330.462982,212.223831 330.927185,211.448883 331.391357,210.673920 
	C331.790131,211.085526 332.188904,211.497131 332.587677,211.908752 
	C331.942291,212.267532 331.296936,212.626328 330.326385,212.993164 
	C330.001221,213.001221 330.000000,213.000000 329.999390,212.999390 
z"/>
<path fill="#11517F" opacity="1.000000" stroke="none" 
	d="
M355.657593,131.957611 
	C355.980225,131.943390 356.003876,132.362427 356.008484,132.572037 
	C354.921265,132.844635 353.829376,132.907608 352.328796,132.910767 
	C353.058411,132.557907 354.196686,132.264877 355.657593,131.957611 
z"/>
<path fill="#1B6491" opacity="1.000000" stroke="none" 
	d="
M368.975403,126.984421 
	C368.147247,126.523964 367.319092,126.063507 366.275696,125.406364 
	C367.578094,125.585922 369.095673,125.962166 370.659607,126.690681 
	C370.333740,127.034882 369.961517,127.026817 369.296936,127.012108 
	C369.004578,127.005463 368.975403,126.984428 368.975403,126.984421 
z"/>
<path fill="#080507" opacity="1.000000" stroke="none" 
	d="
M222.482910,220.771851 
	C222.427704,221.452835 222.177612,221.936157 221.927521,222.419479 
	C221.709579,222.214569 221.276779,221.874084 221.307175,221.825912 
	C221.588608,221.379944 221.949921,220.984390 222.482910,220.771851 
z"/>
<path fill="#080507" opacity="1.000000" stroke="none" 
	d="
M295.272827,221.070038 
	C294.837219,221.439316 294.140442,221.764816 293.443665,222.090317 
	C293.355530,221.853394 293.267365,221.616470 293.179230,221.379547 
	C293.790009,221.261780 294.400818,221.144012 295.272827,221.070038 
z"/>
<path fill="#080507" opacity="1.000000" stroke="none" 
	d="
M206.100418,231.461548 
	C206.158432,230.803635 206.265228,230.379044 206.372040,229.954437 
	C206.529388,229.965530 206.686752,229.976624 206.844101,229.987717 
	C206.844101,230.557312 206.862396,231.128006 206.828278,231.695557 
	C206.821640,231.805862 206.611404,231.984039 206.494141,231.984802 
	C206.379791,231.985550 206.264221,231.799118 206.100418,231.461548 
z"/>
<path fill="#090508" opacity="1.000000" stroke="none" 
	d="
M410.093384,230.558319 
	C410.400330,230.827423 410.661957,231.327194 410.923584,231.826965 
	C410.741638,231.900940 410.559692,231.974899 410.377747,232.048874 
	C410.267883,231.628906 410.158020,231.208939 410.093384,230.558319 
z"/>
<path fill="#1F5D80" opacity="1.000000" stroke="none" 
	d="
M216.598724,80.956024 
	C216.959869,81.119102 216.966705,81.307869 216.976166,81.780457 
	C216.327393,82.267563 215.675980,82.470863 214.686691,82.651237 
	C214.980698,82.079445 215.612564,81.530586 216.598724,80.956024 
z"/>
<path fill="#080507" opacity="1.000000" stroke="none" 
	d="
M210.379578,230.990265 
	C210.570114,231.265106 210.597717,231.646301 210.625305,232.027481 
	C210.489105,231.717194 210.352890,231.406891 210.379578,230.990265 
z"/>
<path fill="#090508" opacity="1.000000" stroke="none" 
	d="
M170.146576,231.326065 
	C170.398010,231.168701 170.613113,231.206329 170.828201,231.243958 
	C170.756454,231.514542 170.684708,231.785141 170.612961,232.055740 
	C170.445389,231.877502 170.277817,231.699280 170.146576,231.326065 
z"/>
<path fill="#1F5D80" opacity="1.000000" stroke="none" 
	d="
M153.298203,165.925552 
	C153.461349,165.378708 153.899994,164.736237 154.654053,164.054214 
	C154.504227,164.619751 154.038956,165.224838 153.298203,165.925552 
z"/>
<path fill="#1B6491" opacity="1.000000" stroke="none" 
	d="
M364.606079,125.159592 
	C364.169617,125.489685 363.401978,125.743584 362.319031,125.993774 
	C362.760773,125.687836 363.517883,125.385612 364.606079,125.159592 
z"/>
<path fill="#050305" opacity="1.000000" stroke="none" 
	d="
M400.579285,219.217880 
	C400.541443,219.240768 400.617157,219.195007 400.579285,219.217880 
z"/>
<path fill="#31688C" opacity="1.000000" stroke="none" 
	d="
M322.028839,48.971600 
	C322.638702,49.096081 323.213684,49.239960 323.930847,49.650528 
	C324.072998,49.917210 323.998901,49.997421 323.672333,50.000008 
	C322.878387,49.686020 322.411041,49.369438 321.943665,49.052860 
	C321.943665,49.052860 321.993988,48.991001 322.028839,48.971600 
z"/>
<path fill="#0C5886" opacity="1.000000" stroke="none" 
	d="
M214.226196,82.628326 
	C213.741791,83.051750 213.230652,83.475662 212.388748,83.954346 
	C212.479813,83.633095 212.901642,83.257050 213.741302,82.737396 
	C214.159149,82.593781 214.199463,82.628799 214.226196,82.628326 
z"/>
<path fill="#090508" opacity="1.000000" stroke="none" 
	d="
M170.422974,225.784882 
	C170.460358,225.762344 170.385574,225.807434 170.422974,225.784882 
z"/>
<path fill="#31688C" opacity="1.000000" stroke="none" 
	d="
M338.931580,55.673660 
	C338.500977,55.826511 337.934845,55.693962 337.176239,55.332222 
	C337.587860,55.198109 338.191956,55.293182 338.931580,55.673660 
z"/>
<path fill="#1F5D80" opacity="1.000000" stroke="none" 
	d="
M155.260880,163.916138 
	C155.117493,163.669525 155.294846,163.421722 155.759476,163.129074 
	C155.968826,163.391830 155.813766,163.668732 155.260880,163.916138 
z"/>
<path fill="#090508" opacity="1.000000" stroke="none" 
	d="
M151.482376,228.468872 
	C151.520096,228.449615 151.444656,228.488129 151.482376,228.468872 
z"/>
<path fill="#31688C" opacity="1.000000" stroke="none" 
	d="
M340.029114,56.733208 
	C339.850464,56.787521 339.555420,56.596615 339.133911,56.171432 
	C339.309204,56.120762 339.610992,56.304375 340.029114,56.733208 
z"/>
<path fill="#31688C" opacity="1.000000" stroke="none" 
	d="
M336.096802,54.732018 
	C335.914246,54.827477 335.587738,54.676682 335.103210,54.303467 
	C335.281036,54.215950 335.616974,54.350857 336.096802,54.732018 
z"/>
<path fill="#1B6491" opacity="1.000000" stroke="none" 
	d="
M357.232178,140.277466 
	C357.483673,140.196564 357.682922,140.408463 357.906647,140.878586 
	C357.661072,140.995758 357.410675,140.806900 357.232178,140.277466 
z"/>
<path fill="#1B6491" opacity="1.000000" stroke="none" 
	d="
M358.260437,142.258698 
	C358.487885,142.174652 358.679047,142.361053 358.920685,142.769760 
	C358.685059,142.922653 358.436035,142.768341 358.260437,142.258698 
z"/>
<path fill="#090508" opacity="1.000000" stroke="none" 
	d="
M376.996277,210.995117 
	C376.992523,210.990234 377.250702,210.583145 377.250702,210.583145 
	C377.250702,210.583145 377.240997,210.903488 377.125366,210.955414 
	C377.009766,211.007339 377.000000,211.000000 376.996277,210.995117 
z"/>
<path fill="#11517F" opacity="1.000000" stroke="none" 
	d="
M327.139465,135.248596 
	C327.407654,135.160416 327.628021,135.383621 327.878052,135.881012 
	C327.687988,135.905197 327.415924,135.706802 327.139465,135.248596 
z"/>
<path fill="#080507" opacity="1.000000" stroke="none" 
	d="
M66.000153,228.000000 
	C66.000305,228.000000 65.598412,227.758606 65.598412,227.758606 
	C65.598412,227.758606 65.901352,227.773438 65.950546,227.886719 
	C65.999748,228.000000 66.000000,228.000000 66.000153,228.000000 
z"/>
<path fill="#090508" opacity="1.000000" stroke="none" 
	d="
M150.481110,226.468765 
	C150.519363,226.449036 150.442841,226.488495 150.481110,226.468765 
z"/>
<path fill="#080507" opacity="1.000000" stroke="none" 
	d="
M290.000610,222.000610 
	C290.001221,222.001221 289.758698,222.400238 289.758698,222.400238 
	C289.758698,222.400238 289.773560,222.098297 289.886169,222.048843 
	C289.998779,221.999390 290.000000,222.000000 290.000610,222.000610 
z"/>
<path fill="#080507" opacity="1.000000" stroke="none" 
	d="
M300.532349,221.480331 
	C300.552887,221.519684 300.511841,221.440979 300.532349,221.480331 
z"/>
<path fill="#C9C8CC" opacity="1.000000" stroke="none" 
	d="
M407.008820,98.287270 
	C407.260864,98.037971 407.527466,98.162376 407.872620,98.580757 
	C407.693176,98.693733 407.383881,98.622482 407.008820,98.287270 
z"/>
<path fill="#11517F" opacity="1.000000" stroke="none" 
	d="
M348.218323,121.997757 
	C348.058960,121.734291 348.216125,121.491035 348.584534,121.139420 
	C348.754883,121.004639 348.944031,121.459770 348.993591,121.700912 
	C348.860077,121.958549 348.677032,121.975044 348.218323,121.997757 
z"/>
<path fill="#080507" opacity="1.000000" stroke="none" 
	d="
M77.531609,219.480774 
	C77.551491,219.519257 77.511726,219.442276 77.531609,219.480774 
z"/>
<path fill="#11517F" opacity="1.000000" stroke="none" 
	d="
M349.267212,122.976883 
	C349.034760,122.869568 349.031097,122.687561 349.039917,122.232681 
	C349.292755,122.143349 349.540039,122.319542 349.759308,122.525574 
	C349.775360,122.540657 349.588531,122.771606 349.267212,122.976883 
z"/>
<path fill="#1B6491" opacity="1.000000" stroke="none" 
	d="
M361.750092,126.083351 
	C361.865997,126.313522 361.669769,126.567162 361.185547,126.877487 
	C361.150055,126.714417 361.330170,126.438629 361.750092,126.083351 
z"/>
<path fill="#0C5886" opacity="1.000000" stroke="none" 
	d="
M171.385757,32.025692 
	C172.714264,31.677994 174.445419,31.327116 176.578491,30.984171 
	C175.249741,31.335571 173.519073,31.679041 171.385757,32.025692 
z"/>
<path fill="#0C5886" opacity="1.000000" stroke="none" 
	d="
M163.411713,32.984093 
	C164.812271,32.783512 166.644943,32.601437 168.754700,32.652248 
	C167.302460,32.924294 165.573135,32.963448 163.411713,32.984093 
z"/>
<path fill="#18608A" opacity="1.000000" stroke="none" 
	d="
M111.071472,48.294781 
	C111.359718,48.064503 111.830421,48.029068 112.654594,47.991394 
	C112.423355,48.155979 111.838638,48.322803 111.071472,48.294781 
z"/>
<path fill="#0366A1" opacity="1.000000" stroke="none" 
	d="
M182.276489,30.980541 
	C182.462601,30.718126 182.925690,30.433292 183.670441,30.163294 
	C183.485901,30.438128 183.019684,30.698126 182.276489,30.980541 
z"/>
<path fill="#236590" opacity="1.000000" stroke="none" 
	d="
M349.697998,65.162262 
	C350.314453,65.882454 350.600800,66.733421 350.818604,67.940338 
	C339.772980,65.719162 328.824890,63.007912 317.805237,60.628239 
	C313.125610,59.617683 308.295898,59.302204 303.243988,58.133957 
	C302.961578,57.401749 302.969543,57.206413 302.977478,57.011074 
	C313.195160,58.769051 323.418396,60.495518 333.628235,62.298046 
	C338.887146,63.226501 344.122131,64.290367 349.697998,65.162262 
z"/>
<path fill="#236590" opacity="1.000000" stroke="none" 
	d="
M282.406952,57.698986 
	C281.960907,57.221336 281.968292,56.868481 281.981323,56.250557 
	C288.450714,56.139977 294.914490,56.294464 301.299744,56.731403 
	C299.493805,57.302410 297.766357,57.590961 296.038940,57.879513 
	C291.646088,57.860935 287.253265,57.842358 282.406952,57.698986 
z"/>
<path fill="#437090" opacity="1.000000" stroke="none" 
	d="
M296.456787,57.983219 
	C297.766357,57.590961 299.493805,57.302410 301.619690,56.997940 
	C302.018158,56.982018 302.498199,56.991879 302.737854,57.001476 
	C302.969543,57.206413 302.961578,57.401749 302.918823,57.888176 
	C300.880890,58.148487 298.877747,58.117706 296.456787,57.983219 
z"/>
<path fill="#437090" opacity="1.000000" stroke="none" 
	d="
M267.371735,58.975533 
	C267.931732,58.641735 268.849670,58.388317 270.134155,58.241989 
	C269.577026,58.584690 268.653351,58.820301 267.371735,58.975533 
z"/>
<path fill="#236590" opacity="1.000000" stroke="none" 
	d="
M350.986694,68.489357 
	C351.379791,68.336693 351.978119,68.411728 352.784088,68.720436 
	C352.391815,68.875092 351.791840,68.796074 350.986694,68.489357 
z"/>
<path fill="#437090" opacity="1.000000" stroke="none" 
	d="
M272.286346,58.012672 
	C272.296478,57.829437 272.542603,57.703018 272.876526,57.722473 
	C272.964264,57.868351 272.522369,58.069492 272.286346,58.012672 
z"/>
<path fill="#0C5E91" opacity="1.000000" stroke="none" 
	d="
M321.534851,49.043198 
	C322.411041,49.369438 322.878387,49.686020 323.634399,50.039284 
	C323.953705,50.494057 323.984406,50.912140 324.037903,51.643452 
	C317.799744,53.177265 313.517181,48.594112 308.190216,46.283630 
	C312.394623,46.988270 316.760315,48.010902 321.534851,49.043198 
z"/>
<path fill="#0C5886" opacity="1.000000" stroke="none" 
	d="
M253.247070,32.283058 
	C254.182785,32.176041 255.370972,32.325199 256.819397,32.727684 
	C255.886261,32.833752 254.692902,32.686493 253.247070,32.283058 
z"/>
<path fill="#0C5E91" opacity="1.000000" stroke="none" 
	d="
M274.007263,36.250999 
	C274.866364,36.158104 275.724152,36.316818 276.803070,36.722031 
	C276.269257,36.982380 275.514313,36.996235 274.382080,37.007965 
	C274.005219,36.838093 274.005615,36.670353 274.007263,36.250999 
z"/>
<path fill="#1B6491" opacity="1.000000" stroke="none" 
	d="
M362.028870,130.997070 
	C363.234436,130.684036 364.439972,130.370972 366.231995,129.905624 
	C366.183044,130.944183 366.138458,131.890228 366.093872,132.836273 
	C364.768585,132.443649 363.443329,132.051025 362.060730,131.330582 
	C362.003418,131.002762 362.028870,130.997070 362.028870,130.997070 
z"/>
<path fill="#0D6198" opacity="1.000000" stroke="none" 
	d="
M361.243591,131.039154 
	C360.502960,130.719666 360.013489,130.387909 359.523987,130.056152 
	C359.824097,129.734329 360.124176,129.412491 360.707611,129.037720 
	C361.311066,129.459488 361.631134,129.934219 361.990051,130.703003 
	C362.028870,130.997070 362.003418,131.002762 362.000458,131.015778 
	C361.829895,131.028137 361.662292,131.027512 361.243591,131.039154 
z"/>
<path fill="#1B6491" opacity="1.000000" stroke="none" 
	d="
M369.017487,127.018356 
	C368.834717,127.374214 368.639038,127.717194 368.443359,128.060165 
	C368.504272,127.786690 368.565186,127.513214 368.800781,127.112083 
	C368.975403,126.984428 369.004578,127.005463 369.017487,127.018356 
z"/>
</svg>